<svg width="29" height="21" viewBox="0 0 29 21" fill="none" xmlns="http://www.w3.org/2000/svg">
<path d="M27.9066 3.22295C27.5801 1.99567 26.6144 1.02749 25.3857 0.695674C23.1641 0.10022 14.2505 0.10022 14.2505 0.10022C14.2505 0.10022 5.34141 0.10022 3.11527 0.695674C1.89112 1.02295 0.925401 1.99113 0.594427 3.22295C0.000488281 5.45022 0.000488281 10.1002 0.000488281 10.1002C0.000488281 10.1002 0.000488281 14.7502 0.594427 16.9775C0.920867 18.2048 1.88658 19.1729 3.11527 19.5048C5.34141 20.1002 14.2505 20.1002 14.2505 20.1002C14.2505 20.1002 23.1641 20.1002 25.3857 19.5048C26.6099 19.1775 27.5756 18.2093 27.9066 16.9775C28.5005 14.7502 28.5005 10.1002 28.5005 10.1002C28.5005 10.1002 28.5005 5.45022 27.9066 3.22295Z" fill="#FF3000"/>
<path d="M11.4032 14.3866L18.807 10.1002L11.4032 5.81386V14.3866Z" fill="white"/>
</svg>
