<svg width="18" height="19" viewBox="0 0 18 19" fill="none" xmlns="http://www.w3.org/2000/svg">
<path d="M16.95 18.1001C14.8667 18.1001 12.8083 17.6459 10.775 16.7376C8.74167 15.8293 6.89167 14.5418 5.225 12.8751C3.55833 11.2084 2.27083 9.35843 1.3625 7.3251C0.454167 5.29176 0 3.23343 0 1.1501C0 0.850098 0.1 0.600098 0.3 0.400098C0.5 0.200098 0.75 0.100098 1.05 0.100098H5.1C5.33333 0.100098 5.54167 0.179264 5.725 0.337598C5.90833 0.495931 6.01667 0.683431 6.05 0.900098L6.7 4.4001C6.73333 4.66676 6.725 4.89176 6.675 5.0751C6.625 5.25843 6.53333 5.41676 6.4 5.5501L3.975 8.0001C4.30833 8.61676 4.70417 9.2126 5.1625 9.7876C5.62083 10.3626 6.125 10.9168 6.675 11.4501C7.19167 11.9668 7.73333 12.4459 8.3 12.8876C8.86667 13.3293 9.46667 13.7334 10.1 14.1001L12.45 11.7501C12.6 11.6001 12.7958 11.4876 13.0375 11.4126C13.2792 11.3376 13.5167 11.3168 13.75 11.3501L17.2 12.0501C17.4333 12.1168 17.625 12.2376 17.775 12.4126C17.925 12.5876 18 12.7834 18 13.0001V17.0501C18 17.3501 17.9 17.6001 17.7 17.8001C17.5 18.0001 17.25 18.1001 16.95 18.1001ZM3.025 6.1001L4.675 4.4501L4.25 2.1001H2.025C2.10833 2.78343 2.225 3.45843 2.375 4.1251C2.525 4.79176 2.74167 5.4501 3.025 6.1001ZM11.975 15.0501C12.625 15.3334 13.2875 15.5584 13.9625 15.7251C14.6375 15.8918 15.3167 16.0001 16 16.0501V13.8501L13.65 13.3751L11.975 15.0501Z" fill="white"/>
</svg>
