<svg width="28" height="28" viewBox="0 0 28 28" fill="none" xmlns="http://www.w3.org/2000/svg">
<path d="M9.44827 14.1C9.44827 11.5868 11.4863 9.54895 14.0009 9.54895C16.5156 9.54895 18.5547 11.5868 18.5547 14.1C18.5547 16.6131 16.5156 18.651 14.0009 18.651C11.4863 18.651 9.44827 16.6131 9.44827 14.1ZM6.9866 14.1C6.9866 17.9717 10.1269 21.1101 14.0009 21.1101C17.875 21.1101 21.0153 17.9717 21.0153 14.1C21.0153 10.2283 17.875 7.08985 14.0009 7.08985C10.1269 7.08985 6.9866 10.2283 6.9866 14.1ZM19.6537 6.8119C19.6536 7.13591 19.7496 7.45268 19.9296 7.72216C20.1096 7.99164 20.3656 8.20172 20.665 8.32583C20.9645 8.44995 21.2941 8.48252 21.6121 8.41944C21.9301 8.35635 22.2222 8.20044 22.4516 7.97142C22.6809 7.7424 22.8372 7.45056 22.9005 7.1328C22.9639 6.81504 22.9316 6.48563 22.8076 6.18623C22.6837 5.88683 22.4737 5.63089 22.2042 5.45077C21.9347 5.27065 21.6178 5.17444 21.2936 5.17431H21.2929C20.8584 5.17452 20.4417 5.34709 20.1343 5.65413C19.8269 5.96118 19.6541 6.37758 19.6537 6.8119ZM8.48222 25.2124C7.15041 25.1517 6.42653 24.93 5.94547 24.7427C5.30771 24.4946 4.85266 24.1991 4.37423 23.7216C3.89579 23.2441 3.59964 22.7897 3.35244 22.1524C3.16492 21.6718 2.94308 20.9481 2.88253 19.6171C2.81631 18.1781 2.80309 17.7458 2.80309 14.1001C2.80309 10.4544 2.8174 10.0233 2.88253 8.58305C2.94319 7.25204 3.16667 6.52979 3.35244 6.04782C3.60073 5.41044 3.89645 4.95566 4.37423 4.47752C4.852 3.99937 5.30661 3.70339 5.94547 3.45635C6.42631 3.26893 7.15041 3.04723 8.48222 2.98672C9.92211 2.92054 10.3546 2.90732 14.0009 2.90732C17.6472 2.90732 18.0802 2.92163 19.5213 2.98672C20.8531 3.04734 21.5758 3.27068 22.058 3.45635C22.6958 3.70339 23.1508 4.00003 23.6293 4.47752C24.1077 4.95501 24.4028 5.41044 24.6511 6.04782C24.8386 6.52837 25.0604 7.25204 25.121 8.58305C25.1872 10.0233 25.2004 10.4544 25.2004 14.1001C25.2004 17.7458 25.1872 18.1769 25.121 19.6171C25.0603 20.9481 24.8374 21.6716 24.6511 22.1524C24.4028 22.7897 24.1071 23.2445 23.6293 23.7216C23.1515 24.1986 22.6958 24.4946 22.058 24.7427C21.5772 24.9301 20.8531 25.1519 19.5213 25.2124C18.0814 25.2785 17.6489 25.2918 14.0009 25.2918C10.353 25.2918 9.92168 25.2785 8.48222 25.2124ZM8.36912 0.530674C6.91491 0.596859 5.92121 0.827305 5.05341 1.16478C4.15468 1.51329 3.39386 1.98084 2.63359 2.73946C1.87332 3.49807 1.40669 4.25963 1.05797 5.15782C0.720293 6.02565 0.48971 7.01821 0.423485 8.47154C0.356168 9.92717 0.340759 10.3925 0.340759 14.1C0.340759 17.8074 0.356168 18.2728 0.423485 19.7284C0.48971 21.1819 0.720293 22.1743 1.05797 23.0421C1.40669 23.9398 1.87343 24.7022 2.63359 25.4605C3.39375 26.2188 4.15468 26.6857 5.05341 27.0352C5.92285 27.3727 6.91491 27.6031 8.36912 27.6693C9.82638 27.7355 10.2913 27.752 14.0009 27.752C17.7106 27.752 18.1762 27.7366 19.6327 27.6693C21.0871 27.6031 22.0801 27.3727 22.9485 27.0352C23.8466 26.6857 24.608 26.2191 25.3683 25.4605C26.1285 24.7019 26.5942 23.9398 26.9439 23.0421C27.2816 22.1743 27.5132 21.1818 27.5784 19.7284C27.6446 18.2717 27.66 17.8074 27.66 14.1C27.66 10.3925 27.6446 9.92717 27.5784 8.47154C27.5122 7.0181 27.2816 6.0251 26.9439 5.15782C26.5942 4.26018 26.1273 3.49927 25.3683 2.73946C24.6092 1.97964 23.8466 1.51329 22.9495 1.16478C22.0801 0.827305 21.087 0.595767 19.6338 0.530674C18.1773 0.46449 17.7117 0.447998 14.002 0.447998C10.2924 0.447998 9.82638 0.463397 8.36912 0.530674Z" fill="url(#paint0_radial_2436_1773)"/>
<path d="M9.44827 14.1C9.44827 11.5868 11.4863 9.54895 14.0009 9.54895C16.5156 9.54895 18.5547 11.5868 18.5547 14.1C18.5547 16.6131 16.5156 18.651 14.0009 18.651C11.4863 18.651 9.44827 16.6131 9.44827 14.1ZM6.9866 14.1C6.9866 17.9717 10.1269 21.1101 14.0009 21.1101C17.875 21.1101 21.0153 17.9717 21.0153 14.1C21.0153 10.2283 17.875 7.08985 14.0009 7.08985C10.1269 7.08985 6.9866 10.2283 6.9866 14.1ZM19.6537 6.8119C19.6536 7.13591 19.7496 7.45268 19.9296 7.72216C20.1096 7.99164 20.3656 8.20172 20.665 8.32583C20.9645 8.44995 21.2941 8.48252 21.6121 8.41944C21.9301 8.35635 22.2222 8.20044 22.4516 7.97142C22.6809 7.7424 22.8372 7.45056 22.9005 7.1328C22.9639 6.81504 22.9316 6.48563 22.8076 6.18623C22.6837 5.88683 22.4737 5.63089 22.2042 5.45077C21.9347 5.27065 21.6178 5.17444 21.2936 5.17431H21.2929C20.8584 5.17452 20.4417 5.34709 20.1343 5.65413C19.8269 5.96118 19.6541 6.37758 19.6537 6.8119ZM8.48222 25.2124C7.15041 25.1517 6.42653 24.93 5.94547 24.7427C5.30771 24.4946 4.85266 24.1991 4.37423 23.7216C3.89579 23.2441 3.59964 22.7897 3.35244 22.1524C3.16492 21.6718 2.94308 20.9481 2.88253 19.6171C2.81631 18.1781 2.80309 17.7458 2.80309 14.1001C2.80309 10.4544 2.8174 10.0233 2.88253 8.58305C2.94319 7.25204 3.16667 6.52979 3.35244 6.04782C3.60073 5.41044 3.89645 4.95566 4.37423 4.47752C4.852 3.99937 5.30661 3.70339 5.94547 3.45635C6.42631 3.26893 7.15041 3.04723 8.48222 2.98672C9.92211 2.92054 10.3546 2.90732 14.0009 2.90732C17.6472 2.90732 18.0802 2.92163 19.5213 2.98672C20.8531 3.04734 21.5758 3.27068 22.058 3.45635C22.6958 3.70339 23.1508 4.00003 23.6293 4.47752C24.1077 4.95501 24.4028 5.41044 24.6511 6.04782C24.8386 6.52837 25.0604 7.25204 25.121 8.58305C25.1872 10.0233 25.2004 10.4544 25.2004 14.1001C25.2004 17.7458 25.1872 18.1769 25.121 19.6171C25.0603 20.9481 24.8374 21.6716 24.6511 22.1524C24.4028 22.7897 24.1071 23.2445 23.6293 23.7216C23.1515 24.1986 22.6958 24.4946 22.058 24.7427C21.5772 24.9301 20.8531 25.1519 19.5213 25.2124C18.0814 25.2785 17.6489 25.2918 14.0009 25.2918C10.353 25.2918 9.92168 25.2785 8.48222 25.2124ZM8.36912 0.530674C6.91491 0.596859 5.92121 0.827305 5.05341 1.16478C4.15468 1.51329 3.39386 1.98084 2.63359 2.73946C1.87332 3.49807 1.40669 4.25963 1.05797 5.15782C0.720293 6.02565 0.48971 7.01821 0.423485 8.47154C0.356168 9.92717 0.340759 10.3925 0.340759 14.1C0.340759 17.8074 0.356168 18.2728 0.423485 19.7284C0.48971 21.1819 0.720293 22.1743 1.05797 23.0421C1.40669 23.9398 1.87343 24.7022 2.63359 25.4605C3.39375 26.2188 4.15468 26.6857 5.05341 27.0352C5.92285 27.3727 6.91491 27.6031 8.36912 27.6693C9.82638 27.7355 10.2913 27.752 14.0009 27.752C17.7106 27.752 18.1762 27.7366 19.6327 27.6693C21.0871 27.6031 22.0801 27.3727 22.9485 27.0352C23.8466 26.6857 24.608 26.2191 25.3683 25.4605C26.1285 24.7019 26.5942 23.9398 26.9439 23.0421C27.2816 22.1743 27.5132 21.1818 27.5784 19.7284C27.6446 18.2717 27.66 17.8074 27.66 14.1C27.66 10.3925 27.6446 9.92717 27.5784 8.47154C27.5122 7.0181 27.2816 6.0251 26.9439 5.15782C26.5942 4.26018 26.1273 3.49927 25.3683 2.73946C24.6092 1.97964 23.8466 1.51329 22.9495 1.16478C22.0801 0.827305 21.087 0.595767 19.6338 0.530674C18.1773 0.46449 17.7117 0.447998 14.002 0.447998C10.2924 0.447998 9.82638 0.463397 8.36912 0.530674Z" fill="url(#paint1_radial_2436_1773)"/>
<defs>
<radialGradient id="paint0_radial_2436_1773" cx="0" cy="0" r="1" gradientUnits="userSpaceOnUse" gradientTransform="translate(3.97043 27.8809) scale(35.6644 35.643)">
<stop offset="0.09" stop-color="#FA8F21"/>
<stop offset="0.78" stop-color="#D82D7E"/>
</radialGradient>
<radialGradient id="paint1_radial_2436_1773" cx="0" cy="0" r="1" gradientUnits="userSpaceOnUse" gradientTransform="translate(16.9093 29.1042) scale(28.1085 28.0916)">
<stop offset="0.64" stop-color="#8C3AAA" stop-opacity="0"/>
<stop offset="1" stop-color="#8C3AAA"/>
</radialGradient>
</defs>
</svg>
