<svg width="20" height="19" viewBox="0 0 20 19" fill="none" xmlns="http://www.w3.org/2000/svg">
<path d="M2 18.1001C1.45 18.1001 0.979167 17.9043 0.5875 17.5126C0.195833 17.1209 0 16.6501 0 16.1001V4.1001C0 3.5501 0.195833 3.07926 0.5875 2.6876C0.979167 2.29593 1.45 2.1001 2 2.1001H12.1C12.0333 2.43343 12 2.76676 12 3.1001C12 3.43343 12.0333 3.76676 12.1 4.1001H2L10 9.1001L13.65 6.8251C13.8833 7.04176 14.1375 7.22926 14.4125 7.3876C14.6875 7.54593 14.975 7.68343 15.275 7.8001L10 11.1001L2 6.1001V16.1001H18V8.0001C18.3833 7.91676 18.7417 7.8001 19.075 7.6501C19.4083 7.5001 19.7167 7.31676 20 7.1001V16.1001C20 16.6501 19.8042 17.1209 19.4125 17.5126C19.0208 17.9043 18.55 18.1001 18 18.1001H2ZM17 6.1001C16.1667 6.1001 15.4583 5.80843 14.875 5.2251C14.2917 4.64176 14 3.93343 14 3.1001C14 2.26676 14.2917 1.55843 14.875 0.975098C15.4583 0.391764 16.1667 0.100098 17 0.100098C17.8333 0.100098 18.5417 0.391764 19.125 0.975098C19.7083 1.55843 20 2.26676 20 3.1001C20 3.93343 19.7083 4.64176 19.125 5.2251C18.5417 5.80843 17.8333 6.1001 17 6.1001Z" fill="white"/>
</svg>
