<svg width="66" height="49" viewBox="0 0 66 49" fill="none" xmlns="http://www.w3.org/2000/svg">
<path d="M35.1757 18.4045C35.8433 18.1338 36.2399 17.4395 36.2309 16.7179C36.2309 15.2391 34.9593 15.0588 33.7599 15.0588L30.2336 15.0316V21.2814H31.7125V19.0178H33.336C34.9954 19.0178 34.6437 19.9467 34.6708 21.2814H36.1679V20.0639C36.1678 19.2341 36.0325 18.7021 35.1757 18.4045ZM33.5796 17.7371H31.7125V16.3571H33.6065C34.0665 16.3571 34.5714 16.4474 34.5714 17.0245C34.5714 17.6199 34.0934 17.7371 33.5796 17.7371Z" fill="#8D91A5"/>
<path d="M32.0735 25.8088H27.3209L25.4269 27.8648L23.5781 25.8088H17.5809L17.5718 32.0586H23.47L25.3908 29.9844L27.2306 32.0586H30.1346L30.1436 29.9575C31.848 29.9575 34.5898 30.3721 34.5898 27.8561C34.5898 26.2956 33.4804 25.8088 32.0735 25.8088ZM22.7124 30.7418H19.0508V29.4971H22.3245V28.2257H19.0508V27.0981H22.8115L24.4258 28.9201L22.7124 30.7418ZM28.6464 31.4813L26.3648 28.9472L28.6464 26.476V31.4813ZM32.0556 28.6858H30.1436V27.0982H32.0825C32.5875 27.0982 33.0026 27.3057 33.0026 27.8561C33.0026 28.433 32.5875 28.6858 32.0556 28.6858Z" fill="#8D91A5"/>
<path d="M29.2055 16.3573V15.0406H24.2002V21.2904H29.2055V20.0007H25.6972V18.7562H29.1063V17.4846H25.6972V16.3573H29.2055Z" fill="#8D91A5"/>
<path d="M40.2351 29.1546C40.9297 28.875 41.2996 28.1805 41.3084 27.4953C41.3084 26.0162 40.0368 25.8088 38.8644 25.8088H35.311L35.3022 32.0586H36.7993L36.808 29.7771H38.3955C39.3875 29.7771 39.7302 29.9575 39.7302 31.0216L39.7212 32.0586H41.2184L41.2274 30.814C41.2273 30.0113 41.0649 29.4522 40.2351 29.1546ZM38.6749 28.5053H36.8079V27.0982H38.7019C39.162 27.0982 39.667 27.1886 39.667 27.7658C39.667 28.388 39.1802 28.5053 38.6749 28.5053Z" fill="#8D91A5"/>
<path d="M20.6019 15.0407L18.8254 19.2792L16.8682 15.0407H14.4243V20.9657L11.8902 15.0407H9.68041L7.00195 21.2904H8.61629L9.19342 19.9107H12.3048L12.8819 21.2904H15.9302V16.4024L18.0946 21.2903H19.4114L21.5758 16.4024V21.2903H23.0911V15.0405L20.6019 15.0407ZM9.72548 18.612L10.7356 16.1229L11.7729 18.612H9.72548Z" fill="#8D91A5"/>
<path d="M56.0537 27.1254H58.7683V25.8088H55.8011C54.6467 25.8088 53.6548 26.4039 53.6548 27.6757C53.6548 30.6517 57.5057 28.8303 57.5057 30.1468C57.5057 30.6066 57.1178 30.7239 56.7481 30.7239H53.8622L53.8532 32.0586H56.7391C57.4968 32.0586 58.3264 31.8962 58.7683 31.2561V28.9292C57.8211 27.6848 55.2241 28.812 55.2241 27.7118C55.2241 27.1886 55.6387 27.1254 56.0537 27.1254Z" fill="#8D91A5"/>
<path d="M50.913 30.7147H48.0093L48.0002 32.0495H50.9042C52.2391 32.0495 53.2671 31.5444 53.2671 30.0656C53.2671 27.0713 49.3982 29.0555 49.3982 27.6934C49.3982 27.1885 49.84 27.1164 50.2277 27.1164H52.9694V25.7995H49.9753C48.8209 25.7995 47.856 26.3948 47.856 27.6663C47.856 30.6425 51.7067 28.7939 51.7067 30.1376C51.6979 30.6246 51.2828 30.7147 50.913 30.7147Z" fill="#8D91A5"/>
<path d="M47.1073 27.0982V25.8088H42.1291L42.1201 32.0584H47.0985L47.1073 30.7688L43.6262 30.7418V29.4971H47.0442V28.2258H43.6353V27.0982H47.1073Z" fill="#8D91A5"/>
<path d="M54.773 15.0588V19.3966L52.1487 15.0588H49.8669V20.9568L47.351 15.0588H45.1143L42.995 19.9737H42.3277C41.1281 19.9737 40.8756 19.2432 40.8756 18.179C40.8756 16.0325 42.2915 16.3753 43.8607 16.4023V15.0315H42.4086C40.2895 15.0315 39.3425 16.1136 39.3425 18.2151C39.3425 20.2171 40.2623 21.2813 42.3184 21.2813H44.0503L44.6272 19.9014H47.7207L48.3157 21.2813H51.3552V16.6008L54.1689 21.2813H56.2974V15.0587H54.773V15.0588ZM45.1594 18.612L46.2056 16.1229L47.2155 18.612H45.1594Z" fill="#8D91A5"/>
<path d="M38.612 15.0406H37.0879V21.2904H38.612V15.0406Z" fill="#8D91A5"/>
<path d="M56.1809 46.2668H9.58911C6.32883 46.2668 3.68579 43.6239 3.68579 40.3635V7.73651C3.68579 4.47623 6.32883 1.83319 9.58911 1.83319H56.1809C59.4413 1.83319 62.0842 4.47623 62.0842 7.73651V40.3635C62.0842 43.6239 59.4413 46.2668 56.1809 46.2668Z" stroke="#8D91A5" stroke-width="2.53906" stroke-miterlimit="10"/>
</svg>
