<svg width="542" height="314" viewBox="0 0 542 314" fill="none" xmlns="http://www.w3.org/2000/svg">
<g opacity="0.4">
<path d="M386.359 3.62628L485.709 0L482.107 99.5233L465.546 98.9431L468.08 29.4091L147.821 350.226L136.111 338.495L456.388 17.66L386.957 20.1984L386.359 3.62628Z" fill="url(#paint0_linear_2013_281)" style="mix-blend-mode:screen"/>
<path d="M318.63 222.636L318.141 208.856L400.731 205.828L397.744 288.579L383.97 288.09L386.088 230.287L119.839 497L110.101 487.245L376.368 220.514L318.63 222.636Z" fill="url(#paint1_linear_2013_281)" style="mix-blend-mode:screen"/>
<path d="M431.754 257.629L431.519 250.939L471.61 249.47L470.162 289.649L463.483 289.414L464.497 261.346L335.246 390.823L330.521 386.09L459.772 256.614L431.754 257.629Z" fill="url(#paint2_linear_2013_281)" style="mix-blend-mode:screen"/>
<path d="M260.095 253.296L259.859 246.605L299.951 245.137L298.503 285.298L291.824 285.062L292.837 257.013L163.586 386.471L158.862 381.739L288.131 252.262L260.095 253.296Z" fill="url(#paint3_linear_2013_281)" style="mix-blend-mode:screen"/>
<path d="M188.148 39.6534L187.913 32.9629L228.004 31.4943L226.538 71.6553L219.859 71.4196L220.891 43.3703L91.6396 172.829L86.9155 168.096L216.167 38.6199L188.148 39.6534Z" fill="url(#paint4_linear_2013_281)" style="mix-blend-mode:screen"/>
<path d="M466.469 131.543L466.342 128.153L486.687 127.409L485.945 147.789L482.56 147.68L483.085 133.429L417.491 199.137L415.102 196.726L480.678 131.018L466.469 131.543Z" fill="url(#paint5_linear_2013_281)" style="mix-blend-mode:screen"/>
<path d="M232.203 191.83L232.094 188.44L252.439 187.696L251.697 208.076L248.312 207.967L248.819 193.716L183.243 259.424L180.836 257.013L246.43 191.323L232.203 191.83Z" fill="url(#paint6_linear_2013_281)" style="mix-blend-mode:screen"/>
<path d="M521.764 243.94L521.656 240.549L542 239.806L541.258 260.186L537.873 260.077L538.38 245.826L472.804 311.534L470.397 309.122L535.991 243.432L521.764 243.94Z" fill="url(#paint7_linear_2013_281)" style="mix-blend-mode:screen"/>
<path d="M324.965 6.85368L324.856 3.4631L345.2 2.71971L344.458 23.0994L341.073 22.9725L341.58 8.73934L276.004 74.4294L273.597 72.0361L339.191 6.32786L324.965 6.85368Z" fill="url(#paint8_linear_2013_281)" style="mix-blend-mode:screen"/>
<path d="M273.869 169.982L275.968 112.179L9.73772 378.892L0 369.137L266.267 102.406L208.528 104.528L208.04 90.7296L290.629 87.7198L287.643 170.472L273.869 169.982Z" fill="url(#paint9_linear_2013_281)" style="mix-blend-mode:screen"/>
</g>
<defs>
<linearGradient id="paint0_linear_2013_281" x1="447.886" y1="-21.8725" x2="211.386" y2="386.999" gradientUnits="userSpaceOnUse">
<stop offset="0.11" stop-color="#0A58CA"/>
<stop offset="1" stop-color="#191919" stop-opacity="0"/>
</linearGradient>
<linearGradient id="paint1_linear_2013_281" x1="369.287" y1="187.643" x2="172.658" y2="527.56" gradientUnits="userSpaceOnUse">
<stop offset="0.11" stop-color="#0A58CA"/>
<stop offset="1" stop-color="#191919" stop-opacity="0"/>
</linearGradient>
<linearGradient id="paint2_linear_2013_281" x1="456.345" y1="240.642" x2="360.889" y2="405.658" gradientUnits="userSpaceOnUse">
<stop offset="0.11" stop-color="#0A58CA"/>
<stop offset="1" stop-color="#191919" stop-opacity="0"/>
</linearGradient>
<linearGradient id="paint3_linear_2013_281" x1="284.686" y1="236.31" x2="189.249" y2="401.315" gradientUnits="userSpaceOnUse">
<stop offset="0.11" stop-color="#0A58CA"/>
<stop offset="1" stop-color="#191919" stop-opacity="0"/>
</linearGradient>
<linearGradient id="paint4_linear_2013_281" x1="212.739" y1="22.6676" x2="117.302" y2="187.673" gradientUnits="userSpaceOnUse">
<stop offset="0.11" stop-color="#0A58CA"/>
<stop offset="1" stop-color="#191919" stop-opacity="0"/>
</linearGradient>
<linearGradient id="paint5_linear_2013_281" x1="478.942" y1="122.93" x2="430.501" y2="206.66" gradientUnits="userSpaceOnUse">
<stop offset="0.11" stop-color="#0A58CA"/>
<stop offset="1" stop-color="#191919" stop-opacity="0"/>
</linearGradient>
<linearGradient id="paint6_linear_2013_281" x1="244.692" y1="183.217" x2="196.257" y2="266.958" gradientUnits="userSpaceOnUse">
<stop offset="0.11" stop-color="#0A58CA"/>
<stop offset="1" stop-color="#191919" stop-opacity="0"/>
</linearGradient>
<linearGradient id="paint7_linear_2013_281" x1="534.253" y1="235.326" x2="485.818" y2="319.067" gradientUnits="userSpaceOnUse">
<stop offset="0.11" stop-color="#0A58CA"/>
<stop offset="1" stop-color="#191919" stop-opacity="0"/>
</linearGradient>
<linearGradient id="paint8_linear_2013_281" x1="337.453" y1="-1.75875" x2="289.037" y2="81.9716" gradientUnits="userSpaceOnUse">
<stop offset="0.11" stop-color="#0A58CA"/>
<stop offset="1" stop-color="#191919" stop-opacity="0"/>
</linearGradient>
<linearGradient id="paint9_linear_2013_281" x1="259.186" y1="69.5353" x2="62.5564" y2="409.452" gradientUnits="userSpaceOnUse">
<stop offset="0.11" stop-color="#0A58CA"/>
<stop offset="1" stop-color="#191919" stop-opacity="0"/>
</linearGradient>
</defs>
</svg>
