<svg width="340" height="150" viewBox="0 0 340 150" fill="none" xmlns="http://www.w3.org/2000/svg">
<rect x="0.866699" y="0.762665" width="338.272" height="148.617" rx="20.5879" fill="#0A58CA"/>
<rect x="35.1799" y="37.3265" width="75.4891" height="75.4891" rx="37.7445" fill="#3D8BFD"/>
<path fill-rule="evenodd" clip-rule="evenodd" d="M72.9237 63.4906C73.6344 63.4906 74.2105 64.0667 74.2105 64.7773V73.7846H83.2177C83.9283 73.7846 84.5044 74.3607 84.5044 75.0713C84.5044 75.7819 83.9283 76.358 83.2177 76.358H74.2105V85.3653C74.2105 86.0759 73.6344 86.652 72.9237 86.652C72.2131 86.652 71.637 86.0759 71.637 85.3653V76.358H62.6298C61.9191 76.358 61.343 75.7819 61.343 75.0713C61.343 74.3606 61.9191 73.7846 62.6298 73.7846L71.637 73.7846V64.7773C71.637 64.0667 72.2131 63.4906 72.9237 63.4906Z" fill="white"/>
<path d="M135.992 64.4976V57.7035H129.198V54.135H135.992V47.3409H139.561V54.135H146.355V57.7035H139.561V64.4976H135.992ZM166.25 45.3851C165.335 45.3737 164.477 45.5223 163.676 45.8312C162.887 46.1285 162.241 46.5403 161.738 47.0664C161.234 47.5926 160.983 48.2045 160.983 48.9022C160.983 49.76 161.217 50.412 161.686 50.858C162.155 51.3041 162.784 51.6358 163.573 51.8531C164.374 52.059 165.266 52.2477 166.25 52.4193C167.828 52.6709 169.287 53.0884 170.625 53.6717C171.974 54.2551 173.055 55.0328 173.867 56.005C174.691 56.9658 175.103 58.1496 175.103 59.5564C175.103 60.8489 174.759 61.9984 174.073 63.0049C173.387 64 172.466 64.8064 171.311 65.424C170.167 66.0302 168.903 66.4134 167.519 66.5735V70.0563H164.997V66.5735C163.842 66.4591 162.744 66.1846 161.703 65.75C160.674 65.3153 159.776 64.7377 159.01 64.0172C158.243 63.2966 157.689 62.4616 157.346 61.5123L160.691 60.2599C160.886 60.8089 161.257 61.3007 161.806 61.7353C162.367 62.1585 163.03 62.4902 163.796 62.7304C164.574 62.9706 165.392 63.0907 166.25 63.0907C167.165 63.0907 168.023 62.942 168.823 62.6446C169.635 62.3473 170.287 61.9355 170.779 61.4094C171.282 60.8832 171.534 60.2656 171.534 59.5564C171.534 58.8244 171.271 58.224 170.745 57.755C170.23 57.2861 169.567 56.9143 168.755 56.6398C167.954 56.3653 167.119 56.1594 166.25 56.0222C164.568 55.7477 163.059 55.3474 161.72 54.8212C160.394 54.2951 159.341 53.5574 158.564 52.608C157.797 51.6587 157.414 50.4234 157.414 48.9022C157.414 47.6097 157.757 46.4602 158.444 45.4537C159.13 44.4472 160.045 43.6408 161.189 43.0346C162.344 42.417 163.613 42.0338 164.997 41.8851V38.3509H167.519V41.8851C168.64 41.9995 169.715 42.274 170.745 42.7087C171.786 43.1433 172.695 43.7209 173.473 44.4415C174.251 45.1506 174.817 45.997 175.171 46.9807L171.791 48.1988C171.597 47.6383 171.225 47.1522 170.676 46.7405C170.127 46.3173 169.464 45.9856 168.686 45.7454C167.92 45.5052 167.108 45.3851 166.25 45.3851ZM185.864 66.6593C184.342 66.6593 182.964 66.2933 181.729 65.5613C180.505 64.8178 179.533 63.8342 178.812 62.6103C178.103 61.375 177.748 60.0254 177.748 58.5614H181.317C181.317 59.3963 181.523 60.1569 181.935 60.8432C182.346 61.5295 182.895 62.0785 183.582 62.4902C184.268 62.8905 185.029 63.0907 185.864 63.0907C186.687 63.0907 187.442 62.8905 188.128 62.4902C188.814 62.0785 189.364 61.5295 189.775 60.8432C190.187 60.1569 190.393 59.3963 190.393 58.5614C190.393 57.7264 190.204 56.9658 189.827 56.2795C189.449 55.5818 188.883 55.0271 188.128 54.6153C187.373 54.1921 186.413 53.9805 185.246 53.9805H179.19L181.626 42.194H193.241V45.7625H184.525L183.582 50.412L185.658 50.4463C187.293 50.4806 188.729 50.858 189.964 51.5786C191.211 52.2878 192.189 53.2485 192.898 54.4609C193.607 55.6619 193.961 57.0287 193.961 58.5614C193.961 59.6708 193.75 60.7174 193.327 61.701C192.903 62.6732 192.32 63.5311 191.577 64.2745C190.845 65.018 189.987 65.6013 189.003 66.0245C188.031 66.4477 186.984 66.6593 185.864 66.6593ZM205.323 66.6593C203.905 66.6593 202.624 66.339 201.48 65.6985C200.347 65.0466 199.37 64.1487 198.546 63.0049C197.723 61.8612 197.093 60.5401 196.659 59.0417C196.224 57.532 196.007 55.9192 196.007 54.2036C196.007 52.4879 196.224 50.8752 196.659 49.3654C197.093 47.8556 197.723 46.5346 198.546 45.4022C199.37 44.2585 200.347 43.3663 201.48 42.7258C202.624 42.0739 203.905 41.7479 205.323 41.7479C206.718 41.7479 207.988 42.0739 209.132 42.7258C210.275 43.3663 211.248 44.2585 212.048 45.4022C212.86 46.5346 213.484 47.8556 213.918 49.3654C214.353 50.8752 214.57 52.4879 214.57 54.2036C214.57 55.9192 214.353 57.532 213.918 59.0417C213.484 60.5401 212.86 61.8612 212.048 63.0049C211.248 64.1487 210.275 65.0466 209.132 65.6985C207.988 66.339 206.718 66.6593 205.323 66.6593ZM205.323 63.0907C206.638 63.0907 207.731 62.6789 208.6 61.8554C209.481 61.0205 210.138 59.9282 210.573 58.5785C211.007 57.2289 211.225 55.7706 211.225 54.2036C211.225 52.5566 210.996 51.0639 210.539 49.7257C210.092 48.3761 209.429 47.3066 208.548 46.5174C207.679 45.7168 206.604 45.3165 205.323 45.3165C204.305 45.3165 203.419 45.5567 202.664 46.037C201.92 46.5174 201.303 47.1751 200.811 48.01C200.33 48.845 199.964 49.7943 199.713 50.858C199.473 51.9218 199.352 53.0369 199.352 54.2036C199.352 55.7706 199.575 57.2289 200.022 58.5785C200.468 59.9282 201.131 61.0205 202.012 61.8554C202.904 62.6789 204.008 63.0907 205.323 63.0907ZM225.294 66.6593C223.876 66.6593 222.595 66.339 221.451 65.6985C220.319 65.0466 219.341 64.1487 218.517 63.0049C217.694 61.8612 217.065 60.5401 216.63 59.0417C216.196 57.532 215.978 55.9192 215.978 54.2036C215.978 52.4879 216.196 50.8752 216.63 49.3654C217.065 47.8556 217.694 46.5346 218.517 45.4022C219.341 44.2585 220.319 43.3663 221.451 42.7258C222.595 42.0739 223.876 41.7479 225.294 41.7479C226.69 41.7479 227.959 42.0739 229.103 42.7258C230.247 43.3663 231.219 44.2585 232.02 45.4022C232.832 46.5346 233.455 47.8556 233.89 49.3654C234.324 50.8752 234.542 52.4879 234.542 54.2036C234.542 55.9192 234.324 57.532 233.89 59.0417C233.455 60.5401 232.832 61.8612 232.02 63.0049C231.219 64.1487 230.247 65.0466 229.103 65.6985C227.959 66.339 226.69 66.6593 225.294 66.6593ZM225.294 63.0907C226.61 63.0907 227.702 62.6789 228.571 61.8554C229.452 61.0205 230.11 59.9282 230.544 58.5785C230.979 57.2289 231.196 55.7706 231.196 54.2036C231.196 52.5566 230.967 51.0639 230.51 49.7257C230.064 48.3761 229.4 47.3066 228.52 46.5174C227.65 45.7168 226.575 45.3165 225.294 45.3165C224.276 45.3165 223.39 45.5567 222.635 46.037C221.892 46.5174 221.274 47.1751 220.782 48.01C220.302 48.845 219.936 49.7943 219.684 50.858C219.444 51.9218 219.324 53.0369 219.324 54.2036C219.324 55.7706 219.547 57.2289 219.993 58.5785C220.439 59.9282 221.102 61.0205 221.983 61.8554C222.875 62.6789 223.979 63.0907 225.294 63.0907ZM245.266 66.6593C243.847 66.6593 242.566 66.339 241.423 65.6985C240.29 65.0466 239.312 64.1487 238.489 63.0049C237.665 61.8612 237.036 60.5401 236.602 59.0417C236.167 57.532 235.95 55.9192 235.95 54.2036C235.95 52.4879 236.167 50.8752 236.602 49.3654C237.036 47.8556 237.665 46.5346 238.489 45.4022C239.312 44.2585 240.29 43.3663 241.423 42.7258C242.566 42.0739 243.847 41.7479 245.266 41.7479C246.661 41.7479 247.931 42.0739 249.074 42.7258C250.218 43.3663 251.19 44.2585 251.991 45.4022C252.803 46.5346 253.426 47.8556 253.861 49.3654C254.296 50.8752 254.513 52.4879 254.513 54.2036C254.513 55.9192 254.296 57.532 253.861 59.0417C253.426 60.5401 252.803 61.8612 251.991 63.0049C251.19 64.1487 250.218 65.0466 249.074 65.6985C247.931 66.339 246.661 66.6593 245.266 66.6593ZM245.266 63.0907C246.581 63.0907 247.673 62.6789 248.543 61.8554C249.423 61.0205 250.081 59.9282 250.516 58.5785C250.95 57.2289 251.168 55.7706 251.168 54.2036C251.168 52.5566 250.939 51.0639 250.481 49.7257C250.035 48.3761 249.372 47.3066 248.491 46.5174C247.622 45.7168 246.547 45.3165 245.266 45.3165C244.248 45.3165 243.361 45.5567 242.606 46.037C241.863 46.5174 241.245 47.1751 240.753 48.01C240.273 48.845 239.907 49.7943 239.655 50.858C239.415 51.9218 239.295 53.0369 239.295 54.2036C239.295 55.7706 239.518 57.2289 239.964 58.5785C240.41 59.9282 241.074 61.0205 241.954 61.8554C242.847 62.6789 243.95 63.0907 245.266 63.0907ZM256.901 68.1348L257.964 62.3358H261.533L259.268 68.1348H256.901ZM273.949 66.6593C272.531 66.6593 271.25 66.339 270.106 65.6985C268.974 65.0466 267.996 64.1487 267.172 63.0049C266.349 61.8612 265.72 60.5401 265.285 59.0417C264.851 57.532 264.633 55.9192 264.633 54.2036C264.633 52.4879 264.851 50.8752 265.285 49.3654C265.72 47.8556 266.349 46.5346 267.172 45.4022C267.996 44.2585 268.974 43.3663 270.106 42.7258C271.25 42.0739 272.531 41.7479 273.949 41.7479C275.345 41.7479 276.614 42.0739 277.758 42.7258C278.902 43.3663 279.874 44.2585 280.675 45.4022C281.487 46.5346 282.11 47.8556 282.545 49.3654C282.979 50.8752 283.197 52.4879 283.197 54.2036C283.197 55.9192 282.979 57.532 282.545 59.0417C282.11 60.5401 281.487 61.8612 280.675 63.0049C279.874 64.1487 278.902 65.0466 277.758 65.6985C276.614 66.339 275.345 66.6593 273.949 66.6593ZM273.949 63.0907C275.265 63.0907 276.357 62.6789 277.226 61.8554C278.107 61.0205 278.765 59.9282 279.199 58.5785C279.634 57.2289 279.851 55.7706 279.851 54.2036C279.851 52.5566 279.622 51.0639 279.165 49.7257C278.719 48.3761 278.055 47.3066 277.175 46.5174C276.306 45.7168 275.23 45.3165 273.949 45.3165C272.931 45.3165 272.045 45.5567 271.29 46.037C270.547 46.5174 269.929 47.1751 269.437 48.01C268.957 48.845 268.591 49.7943 268.339 50.858C268.099 51.9218 267.979 53.0369 267.979 54.2036C267.979 55.7706 268.202 57.2289 268.648 58.5785C269.094 59.9282 269.757 61.0205 270.638 61.8554C271.53 62.6789 272.634 63.0907 273.949 63.0907ZM293.921 66.6593C292.502 66.6593 291.221 66.339 290.078 65.6985C288.945 65.0466 287.967 64.1487 287.144 63.0049C286.32 61.8612 285.691 60.5401 285.257 59.0417C284.822 57.532 284.605 55.9192 284.605 54.2036C284.605 52.4879 284.822 50.8752 285.257 49.3654C285.691 47.8556 286.32 46.5346 287.144 45.4022C287.967 44.2585 288.945 43.3663 290.078 42.7258C291.221 42.0739 292.502 41.7479 293.921 41.7479C295.316 41.7479 296.586 42.0739 297.729 42.7258C298.873 43.3663 299.845 44.2585 300.646 45.4022C301.458 46.5346 302.082 47.8556 302.516 49.3654C302.951 50.8752 303.168 52.4879 303.168 54.2036C303.168 55.9192 302.951 57.532 302.516 59.0417C302.082 60.5401 301.458 61.8612 300.646 63.0049C299.845 64.1487 298.873 65.0466 297.729 65.6985C296.586 66.339 295.316 66.6593 293.921 66.6593ZM293.921 63.0907C295.236 63.0907 296.328 62.6789 297.198 61.8554C298.078 61.0205 298.736 59.9282 299.171 58.5785C299.605 57.2289 299.823 55.7706 299.823 54.2036C299.823 52.5566 299.594 51.0639 299.136 49.7257C298.69 48.3761 298.027 47.3066 297.146 46.5174C296.277 45.7168 295.202 45.3165 293.921 45.3165C292.903 45.3165 292.016 45.5567 291.261 46.037C290.518 46.5174 289.9 47.1751 289.409 48.01C288.928 48.845 288.562 49.7943 288.31 50.858C288.07 51.9218 287.95 53.0369 287.95 54.2036C287.95 55.7706 288.173 57.2289 288.619 58.5785C289.065 59.9282 289.729 61.0205 290.609 61.8554C291.502 62.6789 292.605 63.0907 293.921 63.0907Z" fill="white"/>
<path d="M129.472 110.929V91.7135H140.713V93.635H131.394V99.6741H139.396V101.596H131.394V110.929H129.472ZM142.125 110.929V97.2036H144.047V99.0977C144.532 98.4023 145.163 97.8487 145.941 97.4369C146.719 97.0252 147.565 96.8193 148.48 96.8193C149.011 96.8193 149.523 96.8879 150.018 97.0252L149.235 98.933C148.851 98.814 148.476 98.7545 148.11 98.7545C147.369 98.7545 146.687 98.9375 146.065 99.3036C145.452 99.6696 144.962 100.159 144.596 100.772C144.23 101.385 144.047 102.067 144.047 102.817V110.929H142.125ZM157.065 111.286C155.802 111.286 154.649 110.961 153.606 110.311C152.572 109.662 151.744 108.792 151.122 107.703C150.508 106.605 150.202 105.393 150.202 104.066C150.202 103.06 150.38 102.122 150.737 101.253C151.094 100.374 151.584 99.6055 152.206 98.9467C152.837 98.2787 153.569 97.7572 154.402 97.382C155.235 97.0069 156.122 96.8193 157.065 96.8193C158.327 96.8193 159.476 97.1441 160.51 97.7938C161.553 98.4434 162.381 99.3173 162.994 100.415C163.616 101.513 163.927 102.73 163.927 104.066C163.927 105.064 163.749 105.997 163.392 106.866C163.035 107.735 162.541 108.504 161.91 109.172C161.287 109.831 160.56 110.348 159.727 110.723C158.904 111.098 158.016 111.286 157.065 111.286ZM157.065 109.364C157.998 109.364 158.835 109.122 159.576 108.637C160.327 108.143 160.917 107.493 161.347 106.688C161.786 105.883 162.006 105.009 162.006 104.066C162.006 103.105 161.786 102.222 161.347 101.417C160.908 100.603 160.313 99.9532 159.563 99.4683C158.821 98.9833 157.989 98.7408 157.065 98.7408C156.131 98.7408 155.289 98.9879 154.539 99.482C153.798 99.9669 153.208 100.612 152.769 101.417C152.339 102.222 152.123 103.105 152.123 104.066C152.123 105.054 152.348 105.951 152.796 106.756C153.244 107.552 153.844 108.188 154.594 108.664C155.344 109.131 156.168 109.364 157.065 109.364ZM166.252 110.929V97.2036H168.173V99.0977C168.668 98.4023 169.299 97.8487 170.068 97.4369C170.836 97.0252 171.678 96.8193 172.593 96.8193C173.627 96.8193 174.574 97.0755 175.434 97.5879C176.294 98.0912 176.967 98.7637 177.452 99.6055C177.937 98.7637 178.605 98.0912 179.456 97.5879C180.307 97.0755 181.249 96.8193 182.283 96.8193C183.317 96.8193 184.26 97.0709 185.11 97.5742C185.961 98.0774 186.639 98.7545 187.142 99.6055C187.645 100.456 187.897 101.399 187.897 102.433V110.929H185.975V102.858C185.975 102.126 185.797 101.449 185.44 100.827C185.083 100.205 184.603 99.7062 183.999 99.331C183.404 98.9467 182.741 98.7545 182.009 98.7545C181.277 98.7545 180.609 98.933 180.005 99.2898C179.41 99.6375 178.934 100.122 178.577 100.745C178.22 101.358 178.042 102.062 178.042 102.858V110.929H176.12V102.858C176.12 102.062 175.942 101.358 175.585 100.745C175.228 100.122 174.748 99.6375 174.144 99.2898C173.54 98.933 172.872 98.7545 172.14 98.7545C171.417 98.7545 170.754 98.9467 170.15 99.331C169.546 99.7062 169.066 100.205 168.709 100.827C168.352 101.449 168.173 102.126 168.173 102.858V110.929H166.252ZM197.241 110.929V91.7135H199.327L209.47 107.456V91.7135H211.392V110.929H209.319L199.163 95.186V110.929H197.241ZM214.693 97.2036H216.614V110.929H214.693V97.2036ZM215.667 94.8017C215.356 94.8017 215.091 94.701 214.871 94.4997C214.661 94.2892 214.555 94.0285 214.555 93.7174C214.555 93.4063 214.661 93.1501 214.871 92.9487C215.091 92.7383 215.356 92.6331 215.667 92.6331C215.969 92.6331 216.225 92.7383 216.436 92.9487C216.655 93.1501 216.765 93.4063 216.765 93.7174C216.765 94.0285 216.66 94.2892 216.449 94.4997C216.239 94.701 215.978 94.8017 215.667 94.8017ZM229.586 107.484L231.301 108.417C230.679 109.286 229.888 109.982 228.927 110.503C227.975 111.025 226.941 111.286 225.825 111.286C224.562 111.286 223.409 110.961 222.366 110.311C221.332 109.662 220.504 108.792 219.882 107.703C219.269 106.605 218.962 105.393 218.962 104.066C218.962 103.06 219.141 102.122 219.498 101.253C219.855 100.374 220.344 99.6055 220.966 98.9467C221.598 98.2787 222.33 97.7572 223.162 97.382C223.995 97.0069 224.883 96.8193 225.825 96.8193C226.941 96.8193 227.975 97.0801 228.927 97.6016C229.888 98.1232 230.679 98.8232 231.301 99.7016L229.586 100.621C229.11 100.017 228.538 99.5552 227.87 99.2349C227.202 98.9055 226.52 98.7408 225.825 98.7408C224.901 98.7408 224.064 98.9879 223.313 99.482C222.563 99.9669 221.968 100.612 221.529 101.417C221.099 102.222 220.884 103.105 220.884 104.066C220.884 105.027 221.104 105.91 221.543 106.715C221.991 107.52 222.59 108.166 223.341 108.65C224.091 109.126 224.919 109.364 225.825 109.364C226.575 109.364 227.28 109.19 227.939 108.843C228.598 108.495 229.147 108.042 229.586 107.484ZM244.874 97.2036H246.795V110.929H244.874L244.805 108.376C244.357 109.245 243.73 109.95 242.925 110.49C242.12 111.02 241.159 111.286 240.043 111.286C239.036 111.286 238.094 111.098 237.215 110.723C236.337 110.339 235.563 109.813 234.896 109.145C234.228 108.477 233.706 107.703 233.331 106.825C232.956 105.947 232.768 105.004 232.768 103.998C232.768 103.009 232.951 102.081 233.317 101.211C233.692 100.342 234.205 99.5781 234.854 98.9192C235.513 98.2604 236.273 97.748 237.133 97.382C238.002 97.0069 238.931 96.8193 239.919 96.8193C241.063 96.8193 242.06 97.0938 242.911 97.6428C243.762 98.1827 244.439 98.8918 244.942 99.7702L244.874 97.2036ZM240.001 109.419C240.98 109.419 241.822 109.181 242.527 108.705C243.231 108.22 243.771 107.571 244.146 106.756C244.531 105.942 244.723 105.045 244.723 104.066C244.723 103.06 244.531 102.154 244.146 101.349C243.762 100.534 243.218 99.8892 242.513 99.4134C241.809 98.9375 240.971 98.6996 240.001 98.6996C239.031 98.6996 238.144 98.9421 237.339 99.4271C236.543 99.9029 235.907 100.548 235.431 101.362C234.964 102.177 234.731 103.078 234.731 104.066C234.731 105.064 234.973 105.969 235.458 106.784C235.943 107.589 236.584 108.23 237.38 108.705C238.185 109.181 239.059 109.419 240.001 109.419ZM256.556 99.1251H253.275L253.261 110.929H251.34L251.354 99.1251H248.869V97.2036H251.354L251.34 92.8938H253.261L253.275 97.2036H256.556V99.1251Z" fill="white"/>
</svg>
