<svg width="84" height="15" viewBox="0 0 84 15" fill="none" xmlns="http://www.w3.org/2000/svg">
<path fill-rule="evenodd" clip-rule="evenodd" d="M79.4479 8.18379C81.2679 7.88979 82.6399 6.22379 82.4859 4.27779C82.4859 1.71579 80.8059 0.37179 77.7679 0.37179H73.9599V13.7558H76.5499V8.33779H76.8579L80.358 13.7558H83.5499L79.4479 8.18379ZM77.3199 6.53179H76.5499V2.47179H77.3059C78.9859 2.47179 79.7419 3.22779 79.7419 4.43179C79.7419 5.77579 78.9859 6.53179 77.3199 6.53179Z" fill="white"/>
<path fill-rule="evenodd" clip-rule="evenodd" d="M64.9859 13.7558H72.2939V11.4878H67.5759V7.87578H72.1399V5.62178H67.5759V2.61178H72.2939V0.357776H64.9859V13.7558Z" fill="white"/>
<path fill-rule="evenodd" clip-rule="evenodd" d="M57.3839 9.38778L53.8839 0.357776H51.1539L56.7819 14.0498H58.1399L63.7679 0.357776H61.0379L57.3839 9.38778Z" fill="white"/>
<path fill-rule="evenodd" clip-rule="evenodd" d="M26.5 7.13402C26.5 10.9 29.538 14.05 33.346 14.05C34.564 14.05 35.628 13.756 36.692 13.294V10.284C35.936 11.18 34.872 11.782 33.654 11.782C31.218 11.782 29.244 9.97602 29.244 7.56801V7.27401C29.09 4.86601 31.064 2.76601 33.5 2.61201C34.718 2.61201 35.936 3.21401 36.692 4.11001V1.11401C35.782 0.512014 34.564 0.358014 33.5 0.358014C29.552 0.0640135 26.5 3.21401 26.5 7.13402Z" fill="white"/>
<path fill-rule="evenodd" clip-rule="evenodd" d="M21.7959 5.48189C20.2699 4.87989 19.8219 4.58589 19.8219 3.82989C19.9759 2.93389 20.7319 2.17789 21.6419 2.33189C22.3979 2.33189 23.1679 2.77989 23.7699 3.38189L25.1419 1.57589C24.0779 0.679888 22.7059 0.0778877 21.3339 0.0778877C19.2059 -0.0761123 17.3719 1.57589 17.2319 3.68989V3.84389C17.2319 5.64989 17.9879 6.69989 20.4239 7.45589C21.0259 7.60989 21.6419 7.90389 22.2439 8.21189C22.7059 8.50589 22.9999 8.96789 22.9999 9.56989C22.9999 10.6199 22.0899 11.5299 21.1799 11.5299H21.0259C19.8079 11.5299 18.7439 10.7739 18.2819 9.72389L16.6019 11.3759C17.5119 13.0279 19.3459 13.9379 21.1659 13.9379C23.6019 14.0919 25.5759 12.2859 25.7299 9.87789V9.38789C25.5899 7.58189 24.8339 6.67189 21.7959 5.48189Z" fill="white"/>
<path d="M15.5519 0.357776H12.9619V13.7418H15.5519V0.357776Z" fill="white"/>
<path fill-rule="evenodd" clip-rule="evenodd" d="M5.51395 0.357776H0.949951V13.7418H4.75795C6.43795 13.8958 8.10395 13.2938 9.47595 12.2438C11.002 10.8858 11.912 9.07978 11.912 7.13378C12.052 3.52178 9.16795 0.511776 5.51395 0.357776ZM7.79595 10.4378C6.88595 11.1938 5.51395 11.6418 4.29595 11.4878H3.53995V2.61178H4.29595C5.51395 2.45778 6.88595 2.90578 7.79595 3.66178C8.70595 4.55778 9.16795 5.76178 9.16795 6.96578C9.16795 8.33778 8.70595 9.54178 7.79595 10.4378Z" fill="white"/>
<path fill-rule="evenodd" clip-rule="evenodd" d="M44.4619 0.0499878C40.6539 0.0499878 37.4619 3.05999 37.4619 6.96599C37.4619 10.732 40.4999 13.882 44.4619 14.036C48.4239 14.19 51.4619 11.026 51.6159 7.11999C51.4479 3.21399 48.4099 0.0499878 44.4619 0.0499878Z" fill="white"/>
</svg>
