<svg width="125" height="42" viewBox="0 0 125 42" fill="none" xmlns="http://www.w3.org/2000/svg">
<path d="M0.904541 0.26763C0.904541 0.344442 1.59836 2.45676 2.44636 4.95314C3.834 9.06256 3.98818 9.90749 3.98818 13.2872V17.051H5.91545H7.84272V13.4408C7.84272 10.0995 7.9969 9.3698 9.57727 4.99154L11.2733 0.152412H9.2689H7.226L6.60927 2.34154C5.99254 4.64589 5.8769 4.60749 5.14454 1.76546L4.72054 0.152412H2.83181C1.75254 0.152412 0.904541 0.190819 0.904541 0.26763Z" fill="white"/>
<path d="M35.981 8.60169V17.051H37.9082H39.797L39.9126 14.2473C39.9897 12.6343 40.1824 11.5205 40.4137 11.5973C40.645 11.6357 41.2231 12.9031 41.7628 14.3626L42.7264 17.051H44.538C45.5788 17.051 46.3882 16.9742 46.3882 16.8589C46.3882 16.7821 45.6173 14.6698 44.6537 12.2118C43.69 9.75386 42.9191 7.52633 42.9191 7.21908C42.9191 6.91183 43.613 5.29879 44.461 3.60894C45.309 1.91908 46.0028 0.45966 46.0028 0.344442C46.0028 0.229225 45.1548 0.152412 44.1526 0.152412H42.2639L41.3388 2.45676C40.8377 3.72415 40.298 4.76111 40.1439 4.76111C39.9511 4.76111 39.8355 3.72415 39.8355 2.45676V0.152412H37.9082H35.981V8.60169Z" fill="white"/>
<path d="M70.6718 2.45679C70.6718 4.56911 70.2863 5.33723 69.7081 4.37708C69.5925 4.14665 68.783 3.99303 67.9736 3.99303C65.7379 3.99303 65.2754 5.10679 65.2754 10.714C65.2754 14.9771 65.5838 16.4749 66.5859 17.1278C67.3568 17.6655 69.0528 17.4351 69.7467 16.7822C70.2478 16.2829 70.479 16.2445 70.5947 16.5901C70.6718 16.859 71.4041 17.051 72.2521 17.051H73.7554V8.60172V0.152447H72.2136H70.6718V2.45679ZM70.5947 9.94593C70.7103 13.4793 70.479 14.7466 69.7467 14.7466C68.9372 14.7466 68.7445 13.8633 68.7445 10.3684C68.7445 7.06549 68.8987 6.56622 69.9008 6.75824C70.3634 6.87346 70.5176 7.52636 70.5947 9.94593Z" fill="white"/>
<path d="M75.6826 1.53504C75.6826 2.87924 75.6826 2.87924 77.3015 2.76403C78.8048 2.64881 78.8819 2.572 78.9204 1.38142C78.959 0.190838 78.9204 0.152432 77.3401 0.152432C75.6826 0.152432 75.6826 0.152432 75.6826 1.53504Z" fill="white"/>
<path d="M84.1626 8.60169V17.051H87.6317C90.8695 17.051 91.1779 16.9742 92.3342 15.9756C93.4521 14.9386 93.5291 14.6698 93.5291 12.4807C93.5291 10.5604 93.375 9.94589 92.6426 9.17778C91.7561 8.21763 91.7561 8.21763 92.4884 7.67995C93.0666 7.21908 93.2208 6.64299 93.2208 4.56908C93.2208 2.22633 93.1051 1.91908 92.1415 1.07415C91.1779 0.26763 90.7153 0.152412 87.5931 0.152412H84.1626V8.60169ZM89.6361 3.80096C90.2528 5.14517 89.6361 6.83502 88.4797 6.98865C87.7088 7.10386 87.6317 6.98865 87.6317 4.99154C87.6317 3.07125 87.7088 2.84082 88.4026 2.84082C88.8651 2.84082 89.3662 3.22488 89.6361 3.80096ZM89.4819 10.2147C89.983 10.714 90.0986 12.7495 89.7131 13.7481C89.5975 14.0937 89.0579 14.3626 88.5568 14.3626C87.7088 14.3626 87.6317 14.2089 87.6317 12.3271C87.6317 11.1749 87.7473 10.1379 87.9015 10.0227C88.287 9.60024 88.9808 9.71546 89.4819 10.2147Z" fill="white"/>
<path d="M115.693 8.60169L115.809 17.051H117.312H118.854V13.6713C118.892 9.94589 119.162 10.0611 120.203 14.2473L120.935 17.051H122.747H124.558L123.364 13.3256L122.207 9.63865L122.94 7.48792C123.325 6.29734 123.71 5.10676 123.788 4.83792C123.865 4.53067 123.402 4.37705 122.207 4.37705C120.511 4.37705 120.511 4.37705 120.01 6.10531C119.201 9.02415 118.854 8.44807 118.854 4.22343V0.152412H117.235H115.577L115.693 8.60169Z" fill="white"/>
<path d="M12.2756 4.45384C11.1192 5.06834 10.541 5.95167 10.541 7.14225C10.541 8.1792 10.6181 8.21761 12.2756 8.21761C13.8559 8.21761 14.0101 8.1408 14.0101 7.25747C14.0101 6.29732 14.8967 5.91326 15.3592 6.68138C15.8603 7.4879 15.0508 8.56326 13.3163 9.36978C10.8879 10.4836 10.541 11.0212 10.541 13.7865C10.541 15.5915 10.6952 16.3212 11.2348 16.7821C11.9672 17.4734 14.2028 17.6654 14.5497 17.1278C14.6654 16.9357 15.7061 16.8589 16.901 16.9741L19.021 17.1278V11.6741V6.22051L17.9032 5.10674C16.9396 4.185 16.477 3.99297 14.8967 3.99297C13.8945 3.99297 12.6996 4.22341 12.2756 4.45384ZM15.4748 12.9031C15.3977 14.4778 15.205 14.977 14.7039 15.0538C14.1257 15.1691 14.0101 14.9002 14.0101 13.2872C14.0101 11.3285 14.2028 10.906 15.0508 10.906C15.4748 10.906 15.5519 11.4053 15.4748 12.9031Z" fill="white"/>
<path d="M20.8326 4.26182C20.6784 4.37704 20.5627 8.02559 20.5627 12.327V20.1234H22.2973H24.0318V18.3952C24.0318 16.7821 24.4558 16.1676 24.9955 17.0509C25.4195 17.7423 27.7322 17.4734 28.5031 16.6285C29.1584 15.8988 29.2355 15.2075 29.2355 10.714C29.2355 6.22052 29.1584 5.52921 28.5031 4.7995C27.6166 3.83936 25.7278 3.72414 24.7257 4.64588C24.0704 5.22196 24.0318 5.22196 24.0318 4.64588C24.0318 4.1466 23.6849 3.99298 22.5671 3.99298C21.7577 3.99298 20.9482 4.1082 20.8326 4.26182ZM25.4966 10.5988C25.4195 13.8249 25.2653 14.5546 24.8027 14.5546C24.3402 14.5546 24.186 13.8633 24.1089 11.1365C23.9933 7.33428 24.1089 6.68139 24.9955 6.68139C25.4966 6.68139 25.5737 7.25747 25.4966 10.5988Z" fill="white"/>
<path d="M30.97 10.5988V17.051H32.7045H34.4391L34.362 10.6372L34.2463 4.22343L32.6274 4.18502L30.97 4.14662V10.5988Z" fill="white"/>
<path d="M47.6986 4.33864C47.6215 4.41546 47.5444 7.3343 47.5444 10.7908V17.051H49.279H51.0135V12.6343C51.0135 8.6785 51.0906 8.21763 51.7459 7.83357C52.1699 7.64154 52.8637 7.44951 53.2877 7.44951C53.9815 7.44951 54.0972 7.21908 54.0972 5.72125C54.0972 4.14662 54.0201 3.99299 53.1721 3.99299C52.671 3.99299 52.0543 4.26183 51.7844 4.56908C51.2063 5.29879 50.6281 5.29879 50.6281 4.64589C50.6281 4.30024 50.1655 4.14662 49.2404 4.14662C48.5081 4.18502 47.8143 4.26183 47.6986 4.33864Z" fill="white"/>
<path d="M56.3715 5.10675C55.2537 6.22052 55.2537 6.29733 55.2537 10.6756C55.2537 14.785 55.3308 15.1691 56.1788 16.1676C57.0268 17.1278 57.3737 17.243 59.4937 17.243C61.6137 17.243 61.9606 17.1278 62.8086 16.1676C63.3868 15.4763 63.7337 14.593 63.7337 13.7481C63.7337 12.4423 63.7337 12.4423 62.0377 12.4423C60.3802 12.4423 60.3031 12.4807 60.1875 13.6712C60.1104 14.5162 59.8406 14.977 59.4166 15.0539C58.8384 15.1691 58.7228 14.9002 58.7228 13.2488V11.2901H61.2282H63.7337V8.7553C63.7337 6.48936 63.618 6.14371 62.6158 5.10675C61.6522 4.1466 61.1897 3.99298 59.4937 3.99298C57.7977 3.99298 57.3351 4.1466 56.3715 5.10675ZM60.0718 7.64153C60.0718 8.40965 59.8406 8.83211 59.4166 8.90892C58.8384 9.02414 58.7228 8.7553 58.7228 7.64153C58.7228 6.52776 58.8384 6.25892 59.4166 6.37414C59.8406 6.45095 60.0718 6.87341 60.0718 7.64153Z" fill="white"/>
<path d="M96.1505 4.99152C95.3025 5.68283 94.9556 6.33572 94.9556 7.10384C94.9556 8.1792 95.0327 8.21761 96.6901 8.21761C98.2705 8.21761 98.4247 8.1408 98.4247 7.25746C98.4247 6.29732 99.3112 5.91326 99.7737 6.68138C100.236 7.44949 99.5425 8.52486 98.1163 9.17775C95.4952 10.4067 94.9556 11.1749 94.9556 13.6712C94.9556 16.4749 95.8807 17.6654 97.7694 17.2814C98.4632 17.1278 100.005 17.0509 101.238 17.0509L103.436 17.0893V11.6741V6.22051L102.318 5.10674C101.354 4.185 100.853 3.99297 99.2727 3.99297C97.7308 3.99297 97.0756 4.22341 96.1505 4.99152ZM99.8894 12.9031C99.8123 14.4778 99.6196 14.977 99.1185 15.0538C98.5403 15.1691 98.4247 14.9002 98.4247 13.5176C98.4247 11.943 98.9257 10.906 99.6967 10.906C99.8508 10.906 99.9665 11.8278 99.8894 12.9031Z" fill="white"/>
<path d="M109.487 4.64589C109.063 5.06835 108.832 5.14517 108.832 4.83792C108.832 4.53067 108.176 4.37705 107.02 4.37705H105.17L105.286 10.714L105.401 17.051H107.097H108.793L108.909 12.135C109.024 8.10241 109.14 7.25748 109.603 7.25748C110.065 7.25748 110.181 8.10241 110.296 12.135L110.412 17.051H112.108H113.843V11.2901C113.843 6.0285 113.766 5.45241 113.072 4.76111C112.108 3.80096 110.374 3.76256 109.487 4.64589Z" fill="white"/>
<path d="M75.6826 10.714V17.051H77.3401H78.959V10.714V4.37705H77.3401H75.6826V10.714Z" fill="white"/>
<path d="M5.1445 22.1974C5.1445 22.2742 4.18087 25.4235 3.0245 29.1872C0.711775 36.638 0.711775 36.7532 1.3285 36.5611C1.59832 36.4843 2.06087 35.4858 2.40778 34.3336L3.06305 32.2213H5.72269H8.38232L8.99905 34.2952C9.30741 35.4474 9.8085 36.4459 10.0783 36.5611C10.3096 36.638 10.5409 36.5995 10.5409 36.5227C10.5409 36.3307 7.38014 25.5771 6.64778 23.2727C6.4165 22.6198 5.9925 22.0437 5.68414 22.0437C5.37578 22.0437 5.1445 22.1206 5.1445 22.1974ZM6.72487 26.6909C7.14887 28.2655 7.57287 29.8401 7.6885 30.1858C7.88123 30.8003 7.61141 30.8771 5.76123 30.8771C4.56632 30.8771 3.60268 30.7619 3.60268 30.5698C3.60268 30.4162 3.8725 29.4177 4.18087 28.3807C4.52778 27.3053 4.95178 25.8075 5.18305 24.9626C5.41432 24.1561 5.64559 23.58 5.76123 23.6952C5.83832 23.772 6.30087 25.1162 6.72487 26.6909Z" fill="white"/>
<path d="M34.0537 29.3408C34.0537 33.9495 34.2079 36.6379 34.4392 36.6379C34.6704 36.6379 34.8246 36.2923 34.8246 35.8314C34.8246 35.0633 34.8632 35.0633 36.0195 36.0234C37.5228 37.2908 38.3708 37.2908 39.9126 35.9082C40.9919 34.948 41.1461 34.564 41.3003 32.3365C41.493 29.456 40.7992 27.4205 39.2959 26.4604C38.2166 25.7307 36.7904 25.8843 35.8268 26.8444C35.5184 27.1517 35.1715 27.4205 35.0559 27.4205C34.9403 27.4205 34.8246 26.1915 34.8246 24.7321C34.8246 23.1959 34.6704 22.0437 34.4392 22.0437C34.2079 22.0437 34.0537 24.7321 34.0537 29.3408ZM39.4886 28.035C40.2595 28.8415 40.4137 29.4176 40.4137 31.4531C40.4137 33.4886 40.2595 34.0263 39.4886 34.8712C38.2937 36.1386 37.0217 36.1386 36.0195 34.9096C34.5163 32.9509 34.5163 29.9553 36.0195 28.035C37.0217 26.7676 38.2937 26.7676 39.4886 28.035Z" fill="white"/>
<path d="M21.7192 26.3836C20.6399 26.9213 19.4836 28.7647 19.9076 29.2256C20.1003 29.3792 20.6399 28.9568 21.1796 28.2655C22.7214 26.3452 24.6486 26.7676 25.6123 29.2256C26.3446 31.1459 26.1905 31.2611 22.6828 31.2611H19.3679L19.6377 32.6821C20.2159 35.985 22.1432 37.5981 24.3017 36.5611C27.3468 35.1401 27.6166 28.4959 24.7257 26.4988C23.685 25.7691 22.9912 25.7307 21.7192 26.3836ZM25.7665 33.0662C25.4196 34.5256 24.0705 35.8698 23.0297 35.8698C21.989 35.8698 20.5628 34.18 20.5628 32.951C20.5628 32.0676 20.6785 32.0292 23.2996 32.0292H26.0363L25.7665 33.0662Z" fill="white"/>
<path d="M31.3554 26.1531C31.047 26.2683 30.4689 26.7292 30.0834 27.1901L29.3896 27.9966L29.6209 27.1133C29.8136 26.4988 29.698 26.2683 29.274 26.2683C28.7343 26.2683 28.6572 26.998 28.6572 31.4915C28.6572 35.2937 28.7729 36.6763 29.1198 36.5611C29.3896 36.4459 29.5438 35.5241 29.5052 33.9111C29.3896 29.8401 30.2376 27.6509 32.242 26.9212C32.9358 26.6524 32.0878 25.9227 31.3554 26.1531Z" fill="white"/>
<path d="M45.3475 26.2684C44.0755 26.806 42.9963 29.3408 44.0755 29.3408C44.3068 29.3408 44.461 29.1104 44.461 28.8415C44.461 27.9198 45.8872 26.9597 47.005 27.1133C48.3155 27.2669 49.2406 28.7263 48.6624 29.8017C48.4697 30.1857 48.0843 30.493 47.8144 30.493C46.7737 30.493 44.461 31.3379 43.8828 31.8756C43.3046 32.4901 43.1119 34.9481 43.613 35.7162C44.4995 37.0604 46.9664 37.214 47.9686 36.0234C48.5468 35.3321 49.0864 35.3321 49.0864 36.0618C49.0864 36.3691 49.4334 36.6379 49.8574 36.6379C50.2814 36.6379 50.6283 36.4459 50.6283 36.2539C50.6283 36.0234 50.4741 35.8698 50.2814 35.8698C50.0886 35.8698 49.8574 33.9879 49.7803 31.6452C49.6646 27.0365 49.3948 26.422 47.3519 26.0763C46.6966 25.9995 45.8101 26.0763 45.3475 26.2684ZM48.9323 32.106C48.8166 32.6053 48.7395 33.2966 48.7395 33.6423C48.6624 35.4857 45.2704 36.6379 44.461 35.1401C43.4974 33.2966 44.2683 32.106 46.6966 31.6068C49.0094 31.1843 49.0864 31.1843 48.9323 32.106Z" fill="white"/>
<path d="M61.845 26.4988C60.6115 27.3821 59.8792 29.3024 59.8792 31.722C59.8792 35.1401 61.7293 37.3676 64.1192 36.8299C65.2755 36.5611 66.8173 34.7944 66.8173 33.6422C66.8173 32.8357 66.2777 33.143 65.5839 34.3336C64.813 35.6778 64.0806 36.0618 62.8086 35.7162C61.6908 35.4473 60.6501 33.4118 60.6501 31.4531C60.6501 27.5357 64.0806 25.4618 65.4682 28.4959C65.9693 29.648 66.9715 29.6096 66.6246 28.4575C65.9693 26.3836 63.5024 25.3466 61.845 26.4988Z" fill="white"/>
<path d="M70.8645 26.23C69.3612 26.8445 68.1277 29.3409 69.2841 29.3409C69.631 29.3409 69.9008 29.1104 69.9008 28.8032C69.9008 27.3053 72.7532 26.3836 73.7168 27.5742C73.9867 27.8814 74.1408 28.6111 74.0637 29.2256C73.9481 30.1858 73.7168 30.3394 71.8667 30.7619C70.7103 30.9923 69.5154 31.4916 69.1685 31.7988C68.359 32.6438 68.3976 35.2938 69.2456 36.1387C70.0936 37.022 72.3677 36.9836 73.3314 36.1003C74.0637 35.4474 74.1408 35.4474 74.3721 36.0235C74.4877 36.3691 74.9503 36.638 75.3357 36.638C76.2223 36.638 76.2994 36.0619 75.4899 35.7162C75.0274 35.5626 74.9117 34.7177 74.9117 31.53C74.9117 28.9568 74.7576 27.3438 74.4492 26.9213C73.8325 26.1532 71.9437 25.7691 70.8645 26.23ZM74.1408 32.6822C74.1408 34.4104 72.9074 35.8698 71.4427 35.8698C70.1707 35.8698 69.5154 35.2169 69.5154 33.9111C69.5154 32.4133 70.479 31.8372 73.871 31.2995C74.0252 31.2995 74.1408 31.914 74.1408 32.6822Z" fill="white"/>
<path d="M80.0385 26.3452C79.5374 26.5756 79.1519 26.9213 79.1519 27.1133C79.1519 27.2669 78.9977 27.4205 78.7665 27.4205C78.5737 27.4205 78.381 27.1517 78.381 26.8445C78.381 26.5372 78.2268 26.2684 77.9956 26.2684C77.7643 26.2684 77.6101 28.2655 77.6101 31.4532C77.6101 34.6408 77.7643 36.6379 77.9956 36.6379C78.2268 36.6379 78.381 35.2937 78.381 33.4119C78.381 28.7263 79.1905 27.0365 81.4261 27.0365C82.6596 27.0365 83.0065 28.2271 83.0065 32.5669C83.0065 35.9466 83.1221 36.6379 83.5847 36.6379C84.0472 36.6379 84.1628 35.9466 84.1628 32.8358C84.1628 28.4959 83.7388 26.9213 82.3897 26.3068C81.2719 25.8075 81.1563 25.8075 80.0385 26.3452Z" fill="white"/>
<path d="M11.6973 26.6524C11.6973 26.8828 12.8152 27.0364 14.2413 27.0364C16.2072 27.0364 16.7468 27.1517 16.5926 27.5357C16.477 27.8046 15.2435 29.8017 13.8559 31.9908C12.4297 34.1415 11.389 36.0618 11.5046 36.2922C11.813 36.7531 18.2501 36.7531 18.2501 36.2538C18.2501 36.0234 17.0937 35.8698 15.5133 35.8698C13.4319 35.8698 12.8152 35.7546 12.9693 35.3705C13.085 35.1017 14.2799 33.1046 15.7061 30.9154C17.0937 28.7263 18.1344 26.7676 18.0188 26.614C17.749 26.1147 11.6973 26.1915 11.6973 26.6524Z" fill="white"/>
<path d="M52.0157 28.0734C54.5212 36.2923 54.5983 36.6379 54.2514 37.8285C54.0586 38.5198 53.5575 39.2495 53.1335 39.48C52.7095 39.7104 52.2855 39.9408 52.2085 39.9792C52.1314 40.056 52.2855 40.3249 52.5554 40.6705C52.9408 41.1314 53.1721 41.1698 53.5961 40.7857C54.5212 40.056 54.9066 39.0575 56.7954 32.5285C58.0674 28.2271 58.4914 26.2684 58.1445 26.2684C57.8746 26.2684 57.2579 27.8046 56.6412 29.9937C55.1765 35.2553 55.2535 35.0249 54.8681 34.3336C54.7139 34.0263 54.0972 32.0676 53.519 29.9937C52.8637 27.6894 52.247 26.2684 51.9386 26.2684C51.5146 26.2684 51.5532 26.614 52.0157 28.0734Z" fill="white"/>
</svg>
