<svg width="121" height="45" viewBox="0 0 121 45" fill="none" xmlns="http://www.w3.org/2000/svg">
<g clip-path="url(#clip0_2287_2816)">
<mask id="mask0_2287_2816" style="mask-type:luminance" maskUnits="userSpaceOnUse" x="0" y="0" width="121" height="45">
<path d="M120.223 0.274414H0.55835V44.9256H120.223V0.274414Z" fill="white"/>
</mask>
<g mask="url(#mask0_2287_2816)">
<path d="M27.2384 40.3925C25.0152 42.2451 22.5188 43.743 19.8664 44.8074C19.4373 44.9651 18.9691 44.9651 18.5791 44.8074C15.9267 43.7037 13.4304 42.2056 11.207 40.3925L18.5401 37.3179C18.9691 37.1602 19.4373 37.1602 19.8664 37.3179L27.2384 40.3925ZM19.8664 25.0193C19.4373 24.8616 18.9691 24.8616 18.5401 25.0193L3.79584 31.2081C4.92702 33.4155 6.33123 35.4653 8.00849 37.3179L18.3451 32.9818C18.8911 32.7453 19.5542 32.7453 20.1004 32.9818L30.437 37.3179C32.0752 35.4653 33.5183 33.4155 34.6495 31.2081L19.8664 25.0193ZM36.7949 19.8161L19.8664 12.7207C19.4373 12.5631 18.9691 12.5631 18.5401 12.7207L1.61151 19.8161C0.55835 20.2744 0.714373 20.2744 0.714373 20.7227C0.94841 23.009 1.45549 25.2953 2.1966 27.4632L18.3451 20.6832C18.8911 20.4468 19.5542 20.4468 20.1004 20.6832L36.2489 27.4632C36.9899 25.2953 37.497 23.009 37.731 20.7227C37.5359 20.2892 37.2239 19.9738 36.7949 19.8161ZM37.575 8.14824C37.5359 8.06941 37.497 8.02997 37.419 7.95114L37.341 7.8723C37.185 7.71463 36.9899 7.59638 36.7949 7.51755L19.8664 0.422233C19.4373 0.225141 18.9691 0.225141 18.5401 0.422233L1.61151 7.51755C1.5335 7.55695 1.45549 7.59638 1.37748 7.6358C1.26046 7.71463 1.18245 7.79346 1.06543 7.8723C1.02642 7.91173 0.94841 7.99057 0.909404 8.06941C0.870397 8.14824 0.870397 8.10881 0.870397 8.14824C0.675367 8.42416 0.55835 8.77893 0.55835 9.1337V15.8743L18.3451 8.42416C18.8911 8.18765 19.5542 8.18765 20.1004 8.42416L37.887 15.8743V9.1337C37.887 8.77893 37.7701 8.42416 37.575 8.14824Z" fill="white"/>
<path d="M71.6662 20.9585L70.691 28.9603C70.691 29.1969 70.4961 29.3546 70.2621 29.3151H67.7266C67.4535 29.3151 67.3366 29.1969 67.3755 28.9603L68.3507 20.9585C68.4287 20.5642 68.4677 20.1306 68.4677 19.6971C68.4677 19.3423 68.3897 19.0269 68.1947 18.7116C67.9217 18.3962 67.4535 18.1991 66.7514 18.1991C65.6983 18.2386 64.6451 18.3567 63.631 18.6327L62.3828 28.9209C62.3828 29.1574 62.1878 29.3151 61.9536 29.2756H59.4573C59.1843 29.2756 59.1063 29.1574 59.1063 28.9209L60.0815 20.9979C60.1595 20.5642 60.1984 20.1306 60.1984 19.6971C60.2375 19.3423 60.1204 18.9874 59.9644 18.7116C59.7304 18.3962 59.2623 18.2386 58.5601 18.2386C57.468 18.278 56.4148 18.3962 55.3617 18.6721L54.1134 28.9603C54.1134 29.1969 53.9185 29.3546 53.6845 29.3151H51.1881C50.9541 29.3151 50.7981 29.2363 50.837 28.9603L52.1242 18.2386C52.2411 17.332 52.7093 16.9772 54.1525 16.583C55.7908 16.1888 57.4681 15.9523 59.1843 15.9523C60.7445 15.9523 61.7587 16.307 62.3828 16.8195C64.021 16.2676 65.7763 15.9916 67.4926 15.9523C68.9747 15.9523 70.067 16.1099 70.8472 16.6618C71.6272 17.2137 71.8612 17.9232 71.8612 19.1846C71.8222 19.7365 71.7442 20.3278 71.6662 20.9585Z" fill="white"/>
<path d="M85.2793 25.2156C84.5772 27.896 83.0169 29.6305 79.4674 29.6305C78.3363 29.6305 77.1661 29.5123 76.0739 29.1969L76.1519 30.7342L75.8009 33.6117C75.8009 33.8877 75.6058 34.0847 75.3329 34.1242L72.9144 34.5577C72.6024 34.5972 72.4464 34.4789 72.4854 34.1635L74.3576 18.7511C74.4747 17.4502 74.9816 17.0953 76.1129 16.7406C77.7902 16.2283 79.5065 15.9523 81.2228 15.9523C83.056 15.9523 84.1872 16.3465 84.9282 17.1348C85.6693 17.9232 85.9424 19.0269 85.9424 20.4065C85.9424 22.0227 85.7084 23.6388 85.2793 25.2156ZM82.1589 18.9481C81.8078 18.3567 81.1837 18.2386 80.2085 18.2386C79.3114 18.278 78.4533 18.3962 77.5951 18.6327L76.6201 27.0288C77.3611 27.2259 78.1413 27.3048 78.9214 27.3442C80.7546 27.3442 81.6128 26.7528 82.1589 24.3879C82.4318 23.2446 82.588 22.0227 82.588 20.8402C82.5489 19.8941 82.4709 19.3423 82.1589 18.9481Z" fill="white"/>
<path d="M99.4385 20.8402L98.6974 26.7135C98.5023 28.5662 97.7999 28.9209 96.1229 29.3151C94.9915 29.5516 93.8215 29.6699 92.6516 29.6699C91.2863 29.6699 89.7651 29.591 88.6729 28.9603C87.8148 28.4873 87.2297 27.6595 87.2297 26.2405C87.2297 25.0579 87.5028 23.7965 88.2439 22.9293C89.102 21.9439 90.3892 21.7467 91.6764 21.5497L96.1623 20.8402L96.2396 20.0518C96.2793 19.973 96.2793 19.8548 96.2793 19.7365V19.4211C96.3179 19.0269 96.0841 18.6721 95.7334 18.5539C95.1479 18.3567 94.5239 18.278 93.8998 18.3174C92.1835 18.3174 90.4672 18.8298 89.57 19.0269C89.5311 19.0664 89.492 19.0664 89.4531 19.0664H89.3751C89.258 19.0664 89.18 18.9874 89.1409 18.8298L88.9849 17.2925C88.9459 16.9772 89.18 16.8983 89.2969 16.8195C91.0914 16.2676 92.925 15.9916 94.7973 15.9523C96.5913 15.9523 97.683 16.1888 98.4241 16.6618C99.3216 17.1743 99.5949 17.9627 99.5949 18.9481C99.5949 19.5394 99.5166 20.1701 99.4385 20.8402ZM92.7684 23.4418C91.9884 23.56 91.3254 23.6388 90.9354 24.309C90.7012 24.7426 90.5452 25.2551 90.5843 25.7674C90.5452 26.2798 90.7792 26.7923 91.2083 27.0682C91.7155 27.4625 92.4175 27.4625 93.0806 27.4625C93.8611 27.4625 94.6409 27.3442 95.3818 27.1077L95.889 22.9688L92.7684 23.4418Z" fill="white"/>
<path d="M108.215 30.8531C107.24 33.1789 106.264 34.519 103.183 34.519C102.442 34.5585 101.662 34.4796 100.921 34.3613C100.687 34.2825 100.53 34.2431 100.609 33.9672L100.804 32.5482C100.842 32.3115 100.882 32.1145 101.271 32.1145C101.349 32.1145 102.169 32.1933 102.715 32.1933C104.002 32.1933 104.665 31.8385 105.134 30.6954L105.64 29.3552H104.041C103.807 29.3552 103.69 29.237 103.612 28.961L101.466 16.8596C101.428 16.6231 101.583 16.3865 101.818 16.3077C101.857 16.3077 101.895 16.3077 101.935 16.3077H104.392C104.626 16.2684 104.822 16.4654 104.86 16.7019L106.225 27.2266H106.849L110.516 16.7414C110.594 16.5047 110.828 16.3077 111.101 16.3077H113.636C113.793 16.2684 113.988 16.3865 113.988 16.5837C113.988 16.6231 113.988 16.6231 113.988 16.6624C113.988 16.7414 113.988 16.7807 113.948 16.8596L108.215 30.8531Z" fill="white"/>
</g>
</g>
<defs>
<clipPath id="clip0_2287_2816">
<rect width="120" height="44.6512" fill="white" transform="translate(0.55835 0.274414)"/>
</clipPath>
</defs>
</svg>
