<svg width="204" height="42" viewBox="0 0 204 42" fill="none" xmlns="http://www.w3.org/2000/svg">
<g clip-path="url(#clip0_2013_377)">
<path d="M49.4503 41.0537H11.0559L30.2537 21.6667L49.4503 41.0537Z" fill="white"/>
<path d="M29.1744 20.5768L9.97656 39.9664V1.18988L29.1744 20.5768Z" fill="white"/>
<path d="M49.4503 0.0999756L30.2537 19.4895L11.0559 0.0999756H49.4503Z" fill="white"/>
<path d="M62.586 22.5716L61.1338 24.1756V28.4838H58.0029V12.6725H61.1338V19.8905L67.5547 12.6725H71.5486L64.6287 20.3031L71.8438 28.4825H67.7597L62.586 22.5716Z" fill="white"/>
<path d="M83.9374 16.7969V28.4825H80.9872V27.0855C80.0568 28.1162 78.7637 28.7576 77.2212 28.7576C73.9986 28.7576 71.5715 26.1228 71.5715 22.6397C71.5715 19.1566 73.9999 16.5219 77.2212 16.5219C78.7637 16.5219 80.0568 17.1632 80.9872 18.194V16.7969H83.9374ZM80.9872 22.6397C80.9872 20.8069 79.6254 19.4086 77.7875 19.4086C75.9726 19.4086 74.6108 20.8056 74.6108 22.6397C74.6108 24.4738 75.9726 25.8709 77.7875 25.8709C79.6254 25.8709 80.9872 24.4738 80.9872 22.6397Z" fill="white"/>
<path d="M98.7479 22.6397C98.7479 26.1228 96.3425 28.7576 93.1212 28.7576C91.5787 28.7576 90.2856 28.1394 89.3552 27.0855V32.837H86.405V16.7969H89.3552V18.194C90.2856 17.1401 91.5787 16.5219 93.1212 16.5219C96.3438 16.5219 98.7479 19.1579 98.7479 22.6397ZM95.7074 22.6397C95.7074 20.8069 94.3685 19.4086 92.5307 19.4086C90.7158 19.4086 89.3539 20.8056 89.3539 22.6397C89.3539 24.4738 90.7158 25.8709 92.5307 25.8709C94.3698 25.8709 95.7074 24.4738 95.7074 22.6397Z" fill="white"/>
<path d="M100.153 13.2225C100.153 12.1686 100.97 11.3666 102.014 11.3666C103.057 11.3666 103.875 12.1686 103.875 13.2225C103.875 14.2765 103.057 15.0785 102.014 15.0785C100.97 15.0785 100.153 14.2765 100.153 13.2225ZM100.539 16.7969H103.489V28.4825H100.539V16.7969Z" fill="white"/>
<path d="M110.113 19.5242V24.3812C110.113 25.367 110.658 25.8709 111.702 25.8709C112.292 25.8709 112.791 25.6871 113.221 25.4814V28.2537C112.586 28.5969 111.928 28.7576 111.065 28.7576C108.411 28.7576 107.163 27.1998 107.163 24.8619V19.5229H105.325V16.7969H107.163V13.8408H110.113V16.7969H113.221V19.5229H110.113V19.5242Z" fill="white"/>
<path d="M127.13 16.7969V28.4825H124.18V27.0855C123.249 28.1162 121.956 28.7576 120.414 28.7576C117.191 28.7576 114.764 26.1228 114.764 22.6397C114.764 19.1566 117.191 16.5219 120.414 16.5219C121.956 16.5219 123.249 17.1632 124.18 18.194V16.7969H127.13ZM124.181 22.6397C124.181 20.8069 122.819 19.4086 120.981 19.4086C119.166 19.4086 117.804 20.8056 117.804 22.6397C117.804 24.4738 119.166 25.8709 120.981 25.8709C122.819 25.8709 124.181 24.4738 124.181 22.6397Z" fill="white"/>
<path d="M129.59 11.9861H132.54V28.4838H129.59V11.9861Z" fill="white"/>
<path d="M152.983 24.1987C152.983 26.696 151.099 28.4838 148.582 28.4838H140.708V12.6725H148.06C150.396 12.6725 152.211 14.3677 152.211 16.7056C152.211 18.1952 151.44 19.5011 150.396 20.0974C151.916 20.6462 152.983 22.3197 152.983 24.1987ZM143.748 15.5142V18.9972H147.287C148.218 18.9972 148.989 18.2415 148.989 17.2557C148.989 16.2699 148.263 15.5142 147.287 15.5142H143.748ZM149.761 23.6486C149.761 22.5484 148.921 21.6783 147.81 21.6783H143.749V25.6421H147.81C148.921 25.6421 149.761 24.7707 149.761 23.6486Z" fill="white"/>
<path d="M166.937 16.7969V28.4825H163.987V27.0855C163.056 28.1162 161.763 28.7576 160.221 28.7576C156.998 28.7576 154.571 26.1228 154.571 22.6397C154.571 19.1566 156.998 16.5219 160.221 16.5219C161.763 16.5219 163.056 17.1632 163.987 18.194V16.7969H166.937ZM163.987 22.6397C163.987 20.8069 162.625 19.4086 160.787 19.4086C158.972 19.4086 157.61 20.8056 157.61 22.6397C157.61 24.4738 158.972 25.8709 160.787 25.8709C162.626 25.8709 163.987 24.4738 163.987 22.6397Z" fill="white"/>
<path d="M180.546 21.0588V28.4825H177.596V22.0215C177.596 20.4406 176.598 19.4098 175.054 19.4098C173.443 19.4098 172.355 20.4638 172.355 22.0678V28.4838H169.405V16.7982H172.355V18.104C173.262 17.0732 174.533 16.5231 176.031 16.5231C178.754 16.5218 180.546 18.3097 180.546 21.0588Z" fill="white"/>
<path d="M186.877 24.4507L185.856 25.574V28.4838H182.906V11.9861H185.856V21.5871L190.122 16.7982H193.934L188.965 22.2053L194.093 28.4838H190.234L186.877 24.4507Z" fill="white"/>
</g>
<defs>
<clipPath id="clip0_2013_377">
<rect width="203" height="41" fill="white" transform="translate(0.55835 0.0999756)"/>
</clipPath>
</defs>
</svg>
