<svg width="101" height="50" viewBox="0 0 101 50" fill="none" xmlns="http://www.w3.org/2000/svg">
<g clip-path="url(#clip0_2287_2827)">
<path d="M36.9983 49.068V13.2179H43.5739V49.068H36.9983Z" fill="white"/>
<path d="M10.3167 31.2718C10.4903 31.7842 10.6878 32.3032 10.9097 32.8287L10.9756 32.9848L11.0604 33.1316C12.9818 36.4565 15.7277 38.4844 18.8224 39.3771C21.8556 40.2522 25.044 39.9897 27.9064 39.0929C30.772 38.1951 33.4551 36.6193 35.5548 34.6642C37.6319 32.7301 39.3127 30.2556 39.8288 27.5015C40.1061 26.0212 39.125 24.5977 37.6375 24.3217C37.4244 20.9385 36.9983 14.5264 36.9983 15.9441C37.3271 20.9604 35.7653 25.2134 34.9434 26.7128C34.706 27.9798 33.3338 29.2647 31.8106 30.683C30.3099 32.0803 28.3439 33.2394 26.2606 33.8921C24.1742 34.5458 22.114 34.6497 20.3482 34.1403C19.1358 33.7906 17.9744 33.1293 16.9623 32.0107C14.5231 32.0715 11.5156 31.5434 10.3167 31.2718Z" fill="white"/>
<path fill-rule="evenodd" clip-rule="evenodd" d="M9.33351 25.3478C7.49596 24.7374 6.01089 23.9613 5.09267 23.1696C3.94919 22.1834 2.21881 22.3064 1.22778 23.4442C0.236746 24.582 0.360333 26.3038 1.50382 27.2899C4.03059 29.4689 8.04579 30.946 12.0297 31.6061C16.2148 32.2996 21.0014 32.1977 24.7943 30.5428C26.7304 29.6981 28.5052 28.4027 29.7203 26.5086C30.9494 24.5929 31.4654 22.2821 31.2341 19.6739C30.9365 16.3169 28.8129 14.0972 26.1342 13.1302C23.5973 12.2144 20.62 12.4048 17.9816 13.3787C15.309 14.3651 12.732 16.2448 11.0852 19.0367C10.0125 20.8553 9.38417 22.978 9.33351 25.3478ZM14.8435 26.4699C17.7797 26.7258 20.5728 26.4311 22.5938 25.5492C23.7829 25.0304 24.5994 24.3573 25.1015 23.5748C25.5895 22.814 25.9164 21.7403 25.7756 20.1531C25.6875 19.1597 25.1923 18.5904 24.2653 18.2558C23.1967 17.87 21.5817 17.8654 19.8874 18.4908C18.2274 19.1035 16.7314 20.2364 15.8111 21.7966C15.1181 22.9714 14.6803 24.5068 14.8435 26.4699Z" fill="white"/>
<path d="M5.09267 23.1695C6.01089 23.9614 7.49597 24.7374 9.33351 25.3478C10.2695 25.6407 12.6819 26.2754 14.8435 26.4699L12.0297 31.6061C8.04579 30.946 4.03059 29.4689 1.50382 27.2899C0.360333 26.3037 0.236746 24.582 1.22778 23.4442C2.21881 22.3064 3.94919 22.1834 5.09267 23.1695Z" fill="white"/>
<path fill-rule="evenodd" clip-rule="evenodd" d="M52.4786 38.9809C58.9096 38.9809 64.1229 32.939 64.1229 25.4861C64.1229 18.033 58.9096 11.9911 52.4786 11.9911C46.0476 11.9911 40.8342 18.033 40.8342 25.4861C40.8342 32.939 46.0476 38.9809 52.4786 38.9809ZM50.4237 32.9832C54.2066 32.9832 57.2733 29.7486 57.2733 25.7586C57.2733 21.7686 54.2066 18.5341 50.4237 18.5341C46.6407 18.5341 43.5741 21.7686 43.5741 25.7586C43.5741 29.7486 46.6407 32.9832 50.4237 32.9832Z" fill="white"/>
<path d="M72.8904 13.0815H66.1777V30.2569C66.3902 33.1323 68.319 38.5892 74.2387 38.9809H75.6302C77.6395 38.9809 81.9867 38.0268 83.3017 34.21V32.4379V26.1676C83.3017 30.0934 81.6579 32.7106 78.0961 32.7106H77.2741C74.853 32.7106 72.8904 30.7576 72.8904 28.3486V13.0815Z" fill="white"/>
<path fill-rule="evenodd" clip-rule="evenodd" d="M75.6302 38.9809C75.1436 39.0112 74.6801 39.0101 74.2387 38.9809H75.6302Z" fill="white"/>
<path d="M89.8772 13.0815H83.3018V38.163H89.8772V13.0815Z" fill="white"/>
<path d="M93.4395 0.131897V38.163H100.289V0.131897H93.4395Z" fill="white"/>
</g>
<defs>
<clipPath id="clip0_2287_2827">
<rect width="100" height="48.9362" fill="white" transform="translate(0.55835 0.131897)"/>
</clipPath>
</defs>
</svg>
