<svg width="161" height="31" viewBox="0 0 161 31" fill="none" xmlns="http://www.w3.org/2000/svg">
<g clip-path="url(#clip0_2013_338)">
<path d="M58.5247 23.7855H58.3667C58.1588 23.7804 57.9608 23.6956 57.8137 23.5485C57.6667 23.4014 57.5818 23.2034 57.5767 22.9955V21.7325C57.072 22.4747 56.3871 23.0765 55.5862 23.4816C54.7853 23.8867 53.8946 24.0817 52.9977 24.0485C52.1709 24.0652 51.3494 23.9121 50.5842 23.5985C49.8189 23.285 49.1261 22.8177 48.5487 22.2257C47.9713 21.6337 47.5215 20.9294 47.2272 20.1565C46.9329 19.3837 46.8003 18.5586 46.8377 17.7325C46.8011 16.909 46.9346 16.0868 47.2299 15.3171C47.5251 14.5475 47.9758 13.847 48.5538 13.2592C49.1318 12.6715 49.8247 12.2091 50.5893 11.901C51.3538 11.5929 52.1737 11.4457 52.9977 11.4685C53.8887 11.4371 54.7734 11.6275 55.5727 12.0224C56.3719 12.4174 57.0605 13.0047 57.5767 13.7315V12.5215C57.5818 12.3136 57.6667 12.1156 57.8137 11.9685C57.9608 11.8214 58.1588 11.7366 58.3667 11.7315H58.5247C58.7326 11.7366 58.9307 11.8214 59.0777 11.9685C59.2248 12.1156 59.3097 12.3136 59.3147 12.5215V22.9955C59.3168 23.0997 59.2977 23.2033 59.2588 23.3C59.2199 23.3967 59.1619 23.4845 59.0882 23.5583C59.0146 23.632 58.9268 23.6902 58.8301 23.7292C58.7335 23.7682 58.6289 23.7874 58.5247 23.7855ZM53.0507 22.3115C53.6603 22.3426 54.2696 22.2455 54.8392 22.0264C55.4089 21.8074 55.9262 21.4712 56.3578 21.0396C56.7894 20.608 57.1256 20.0907 57.3447 19.521C57.5638 18.9513 57.6609 18.342 57.6297 17.7325C57.6387 17.1311 57.526 16.5341 57.2984 15.9774C57.0708 15.4207 56.733 14.9157 56.3053 14.4929C55.8775 14.07 55.3688 13.738 54.8095 13.5168C54.2502 13.2955 53.652 13.1896 53.0507 13.2055C52.452 13.1804 51.8545 13.2807 51.2968 13.5C50.7391 13.7194 50.2334 14.0528 49.8121 14.4791C49.3908 14.9054 49.0633 15.415 48.8506 15.9752C48.6378 16.5355 48.5446 17.134 48.5767 17.7325C48.5522 18.3314 48.6504 18.929 48.8651 19.4886C49.0799 20.0482 49.4067 20.558 49.8256 20.9868C50.2444 21.4156 50.7464 21.7542 51.3009 21.982C51.8553 22.2098 52.4514 22.3219 53.0507 22.3115Z" fill="white"/>
<path d="M73.3675 13.5215L65.4195 22.1015H72.7885C72.9965 22.1063 73.1947 22.1911 73.3418 22.3382C73.4889 22.4854 73.5737 22.6835 73.5785 22.8915V22.9965C73.5735 23.2044 73.4886 23.4024 73.3415 23.5495C73.1945 23.6966 72.9965 23.7814 72.7885 23.7865H63.8885C63.6808 23.7814 63.4829 23.6967 63.3359 23.5499C63.1888 23.403 63.1039 23.2053 63.0985 22.9975V22.5235C63.0935 22.4258 63.1098 22.3281 63.1463 22.2373C63.1827 22.1465 63.2384 22.0647 63.3095 21.9975L71.0995 13.4175H64.3115C64.1036 13.4124 63.9056 13.3276 63.7585 13.1805C63.6115 13.0334 63.5266 12.8354 63.5215 12.6275V12.5215C63.5266 12.3136 63.6115 12.1156 63.7585 11.9685C63.9056 11.8214 64.1036 11.7366 64.3115 11.7315H72.7335C72.9415 11.7366 73.1395 11.8214 73.2865 11.9685C73.4336 12.1156 73.5185 12.3136 73.5235 12.5215V12.9425C73.5512 13.0442 73.5514 13.1514 73.524 13.2531C73.4965 13.3549 73.4426 13.4475 73.3675 13.5215Z" fill="white"/>
<path d="M76.6317 17.7325C76.5848 16.9111 76.7094 16.0888 76.9976 15.3182C77.2857 14.5475 77.7311 13.8452 78.3054 13.256C78.8798 12.6668 79.5704 12.2036 80.3335 11.8959C81.0966 11.5882 81.9153 11.4426 82.7377 11.4685C86.1587 11.4685 88.6857 13.8895 88.6857 17.7325C88.6806 17.9404 88.5958 18.1384 88.4487 18.2855C88.3016 18.4326 88.1036 18.5174 87.8957 18.5225H78.4207C78.5171 19.6012 79.0243 20.6016 79.8375 21.3168C80.6506 22.0321 81.7076 22.4075 82.7897 22.3655C83.4686 22.3818 84.1417 22.2378 84.7545 21.9452C85.3673 21.6526 85.9025 21.2197 86.3167 20.6815C86.4043 20.5587 86.5253 20.4636 86.6653 20.4076C86.8054 20.3515 86.9586 20.3369 87.1067 20.3655L87.2647 20.4185C87.4669 20.4734 87.6424 20.5996 87.7586 20.7739C87.8748 20.9483 87.9239 21.1588 87.8967 21.3665C87.8859 21.4784 87.85 21.5864 87.7917 21.6825C87.2208 22.4524 86.4734 23.0742 85.6125 23.4954C84.7515 23.9167 83.802 24.1252 82.8437 24.1035C82.0087 24.1241 81.1785 23.9721 80.405 23.6571C79.6314 23.3422 78.9312 22.8709 78.3481 22.2729C77.765 21.6749 77.3116 20.963 77.0163 20.1818C76.721 19.4005 76.59 18.5667 76.6317 17.7325ZM86.8957 16.9425C86.8249 15.9011 86.3511 14.9283 85.5748 14.2306C84.7984 13.5328 83.7807 13.1651 82.7377 13.2055C81.6758 13.1762 80.6409 13.5423 79.8337 14.2328C79.0264 14.9233 78.5044 15.8889 78.3687 16.9425H86.8957Z" fill="white"/>
<path d="M99.5816 12.6265C99.569 12.7307 99.5356 12.8313 99.4835 12.9224C99.4314 13.0136 99.3616 13.0933 99.2782 13.1571C99.1948 13.2208 99.0995 13.2672 98.9979 13.2936C98.8963 13.3199 98.7905 13.3257 98.6866 13.3105H98.5816C98.2864 13.2526 97.9872 13.2175 97.6866 13.2055C95.2126 13.2055 94.2126 16.1055 94.2126 19.3115V22.9965C94.2075 23.2044 94.1227 23.4024 93.9756 23.5495C93.8285 23.6966 93.6305 23.7814 93.4226 23.7865H93.2646C93.0567 23.7814 92.8587 23.6966 92.7116 23.5495C92.5645 23.4024 92.4797 23.2044 92.4746 22.9965V12.5215C92.4797 12.3136 92.5645 12.1156 92.7116 11.9685C92.8587 11.8214 93.0567 11.7366 93.2646 11.7315H93.4226C93.6305 11.7366 93.8285 11.8214 93.9756 11.9685C94.1227 12.1156 94.2075 12.3136 94.2126 12.5215V14.4685C94.7916 12.4155 95.8966 11.4685 97.6866 11.4685C98.13 11.4691 98.5717 11.5221 99.0026 11.6265C99.1822 11.6773 99.3383 11.7893 99.4441 11.943C99.5498 12.0968 99.5985 12.2827 99.5816 12.4685V12.6265Z" fill="white"/>
<path d="M103.793 5.99349C104.04 6.00369 104.279 6.08642 104.48 6.2314C104.681 6.37639 104.835 6.57723 104.923 6.80896C105.01 7.04069 105.028 7.2931 104.974 7.53479C104.919 7.77649 104.795 7.99681 104.616 8.16838C104.437 8.33995 104.212 8.45519 103.968 8.49979C103.724 8.54438 103.473 8.51635 103.245 8.41919C103.017 8.32203 102.823 8.16002 102.686 7.9533C102.549 7.74658 102.477 7.50427 102.477 7.25649C102.476 7.08596 102.51 6.91708 102.577 6.76009C102.643 6.6031 102.741 6.46126 102.864 6.34318C102.987 6.22509 103.133 6.13321 103.292 6.0731C103.452 6.013 103.622 5.98591 103.793 5.99349ZM103.846 23.7855H103.741C103.533 23.7804 103.335 23.6956 103.188 23.5485C103.04 23.4014 102.956 23.2034 102.951 22.9955V12.5215C102.956 12.3136 103.04 12.1156 103.188 11.9685C103.335 11.8214 103.533 11.7366 103.741 11.7315H103.846C104.053 11.7366 104.251 11.8214 104.399 11.9685C104.546 12.1156 104.63 12.3136 104.636 12.5215V22.9935C104.638 23.0978 104.619 23.2014 104.58 23.2982C104.541 23.395 104.482 23.4829 104.409 23.5566C104.335 23.6304 104.247 23.6885 104.15 23.7275C104.054 23.7665 103.95 23.7855 103.846 23.7835V23.7855Z" fill="white"/>
<path d="M118.69 21.7845C118.841 21.939 118.926 22.1469 118.926 22.3635C118.926 22.5801 118.841 22.788 118.69 22.9425C118.637 22.9955 118.585 23.0475 118.532 23.0475C117.464 23.7346 116.222 24.1001 114.953 24.1005C114.118 24.1205 113.287 23.9708 112.512 23.6604C111.736 23.35 111.032 22.8855 110.441 22.2948C109.851 21.7042 109.386 20.9998 109.076 20.2244C108.765 19.4489 108.616 18.6185 108.636 17.7835C108.617 16.9513 108.767 16.1239 109.079 15.3519C109.39 14.5799 109.855 13.8794 110.446 13.2932C111.038 12.707 111.742 12.2474 112.516 11.9425C113.291 11.6375 114.12 11.4936 114.952 11.5195C116.212 11.5339 117.446 11.8787 118.531 12.5195C118.707 12.6358 118.832 12.8147 118.881 13.02C118.93 13.2252 118.898 13.4414 118.794 13.6245C118.741 13.6775 118.741 13.7295 118.689 13.7825L118.584 13.8875C118.454 14.0167 118.284 14.0976 118.102 14.1167C117.92 14.1359 117.737 14.092 117.584 13.9925C116.79 13.5114 115.88 13.2565 114.953 13.2555C114.341 13.228 113.731 13.3272 113.16 13.5469C112.589 13.7665 112.07 14.102 111.635 14.532C111.2 14.9621 110.859 15.4775 110.633 16.0458C110.406 16.6141 110.3 17.2231 110.321 17.8345C110.299 18.4486 110.404 19.0605 110.629 19.6322C110.854 20.2039 111.195 20.7232 111.629 21.1577C112.064 21.5922 112.583 21.9326 113.155 22.1577C113.727 22.3829 114.338 22.488 114.953 22.4665C115.88 22.4655 116.79 22.2106 117.584 21.7295C117.737 21.63 117.92 21.5862 118.102 21.6053C118.284 21.6244 118.454 21.7053 118.584 21.8345L118.69 21.7845Z" fill="white"/>
<path d="M133.587 23.7855H133.429C133.221 23.7804 133.023 23.6956 132.876 23.5485C132.729 23.4014 132.644 23.2034 132.639 22.9955V21.7325C132.134 22.4747 131.449 23.0765 130.648 23.4816C129.847 23.8867 128.957 24.0817 128.06 24.0485C127.233 24.0651 126.411 23.9118 125.646 23.5981C124.881 23.2845 124.188 22.8171 123.611 22.225C123.034 21.6329 122.584 20.9285 122.29 20.1556C121.996 19.3827 121.863 18.5576 121.901 17.7315C121.864 16.9081 121.998 16.0861 122.293 15.3167C122.588 14.5472 123.039 13.8469 123.617 13.2592C124.195 12.6716 124.887 12.2094 125.652 11.9013C126.416 11.5932 127.236 11.4458 128.06 11.4685C128.951 11.4371 129.835 11.6275 130.635 12.0224C131.434 12.4174 132.123 13.0047 132.639 13.7315V12.5215C132.644 12.3136 132.729 12.1156 132.876 11.9685C133.023 11.8214 133.221 11.7366 133.429 11.7315H133.587C133.795 11.7366 133.993 11.8214 134.14 11.9685C134.287 12.1156 134.372 12.3136 134.377 12.5215V22.9955C134.383 23.1009 134.367 23.2065 134.33 23.3052C134.292 23.404 134.234 23.4937 134.16 23.5684C134.085 23.643 133.995 23.701 133.897 23.7384C133.798 23.7759 133.692 23.7919 133.587 23.7855ZM128.113 22.3115C128.722 22.3426 129.332 22.2455 129.901 22.0264C130.471 21.8074 130.988 21.4712 131.42 21.0396C131.851 20.608 132.188 20.0907 132.407 19.521C132.626 18.9513 132.723 18.342 132.692 17.7325C132.701 17.1311 132.588 16.5341 132.36 15.9774C132.133 15.4207 131.795 14.9157 131.367 14.4929C130.94 14.07 130.431 13.738 129.872 13.5168C129.312 13.2955 128.714 13.1896 128.113 13.2055C127.514 13.1804 126.917 13.2807 126.359 13.5C125.801 13.7194 125.295 14.0528 124.874 14.4791C124.453 14.9054 124.125 15.415 123.913 15.9752C123.7 16.5355 123.607 17.134 123.639 17.7325C123.614 18.3314 123.712 18.929 123.927 19.4886C124.142 20.0482 124.469 20.558 124.888 20.9868C125.306 21.4156 125.808 21.7542 126.363 21.982C126.917 22.2098 127.513 22.3219 128.113 22.3115Z" fill="white"/>
<path d="M146.325 12.6265C146.312 12.7307 146.279 12.8313 146.227 12.9224C146.175 13.0136 146.105 13.0933 146.021 13.1571C145.938 13.2208 145.843 13.2672 145.741 13.2936C145.639 13.3199 145.534 13.3257 145.43 13.3105H145.325C145.03 13.2526 144.73 13.2175 144.43 13.2055C141.956 13.2055 140.956 16.1055 140.956 19.3115V22.9965C140.951 23.2044 140.866 23.4024 140.719 23.5495C140.572 23.6966 140.374 23.7814 140.166 23.7865H140.008C139.8 23.7814 139.602 23.6966 139.455 23.5495C139.308 23.4024 139.223 23.2044 139.218 22.9965V12.5215C139.223 12.3136 139.308 12.1156 139.455 11.9685C139.602 11.8214 139.8 11.7366 140.008 11.7315H140.166C140.374 11.7366 140.572 11.8214 140.719 11.9685C140.866 12.1156 140.951 12.3136 140.956 12.5215V14.4685C141.535 12.4155 142.64 11.4685 144.43 11.4685C144.873 11.4691 145.315 11.5221 145.746 11.6265C145.925 11.6773 146.081 11.7893 146.187 11.943C146.293 12.0968 146.342 12.2827 146.325 12.4685V12.6265Z" fill="white"/>
<path d="M160.117 23.7855H159.959C159.751 23.7804 159.553 23.6955 159.406 23.5485C159.258 23.4014 159.174 23.2034 159.169 22.9955V21.7325C158.664 22.4746 157.979 23.0765 157.178 23.4816C156.377 23.8867 155.486 24.0817 154.59 24.0485C153.763 24.0651 152.941 23.9118 152.176 23.5981C151.411 23.2845 150.718 22.8171 150.141 22.225C149.563 21.6328 149.114 20.9285 148.82 20.1556C148.525 19.3827 148.393 18.5576 148.431 17.7315C148.394 16.908 148.527 16.0859 148.823 15.3164C149.118 14.5468 149.568 13.8463 150.146 13.2586C150.724 12.6708 151.417 12.2085 152.181 11.9003C152.946 11.5922 153.766 11.4448 154.59 11.4675C155.48 11.4361 156.365 11.6264 157.164 12.0214C157.964 12.4164 158.652 13.0037 159.169 13.7305V5.99447C159.174 5.78654 159.258 5.58854 159.406 5.44147C159.553 5.2944 159.751 5.20954 159.959 5.20447H160.117C160.324 5.20954 160.522 5.2944 160.67 5.44147C160.817 5.58854 160.901 5.78654 160.907 5.99447V23.0485C160.899 23.2509 160.812 23.4421 160.664 23.5803C160.516 23.7184 160.319 23.7922 160.117 23.7855ZM154.643 22.3115C155.252 22.3426 155.861 22.2455 156.431 22.0264C157.001 21.8073 157.518 21.4711 157.95 21.0396C158.381 20.608 158.717 20.0906 158.937 19.521C159.156 18.9513 159.253 18.342 159.222 17.7325C159.231 17.1311 159.118 16.5341 158.89 15.9774C158.663 15.4207 158.325 14.9157 157.897 14.4928C157.469 14.07 156.961 13.738 156.401 13.5167C155.842 13.2955 155.244 13.1896 154.643 13.2055C154.044 13.1804 153.446 13.2807 152.889 13.5C152.331 13.7193 151.825 14.0528 151.404 14.4791C150.983 14.9053 150.655 15.415 150.442 15.9752C150.23 16.5355 150.136 17.134 150.169 17.7325C150.144 18.3314 150.242 18.9289 150.457 19.4886C150.672 20.0482 150.999 20.558 151.417 20.9868C151.836 21.4155 152.338 21.7542 152.893 21.982C153.447 22.2098 154.042 22.3219 154.642 22.3115H154.643Z" fill="white"/>
<path d="M43.3128 30.9965H36.5748C36.0598 30.997 35.5531 30.867 35.1021 30.6185C34.651 30.3699 34.2704 30.0111 33.9958 29.5755L16.4668 1.51949C16.3491 1.32187 16.3107 1.08693 16.3596 0.862151C16.4084 0.637368 16.5407 0.439491 16.7298 0.308491C16.8812 0.248601 17.0412 0.213159 17.2038 0.203491L20.6248 0.203491C22.1683 0.207387 23.686 0.599966 25.0379 1.34501C26.3897 2.09005 27.5321 3.16356 28.3598 4.46649L44.0488 29.6805C44.1132 29.7766 44.1576 29.8847 44.1792 29.9984C44.2009 30.112 44.1994 30.2289 44.1749 30.3419C44.1503 30.455 44.1032 30.562 44.0363 30.6564C43.9695 30.7508 43.8842 30.8308 43.7858 30.8915C43.6382 30.9634 43.4759 30.9997 43.3118 30.9975L43.3128 30.9965Z" fill="white"/>
<path d="M26.9935 21.8375C26.0345 20.3112 24.7391 19.0245 23.2064 18.0758C21.6737 17.127 19.9443 16.5413 18.1505 16.3635L15.1505 16.1005C14.8733 16.0738 14.6058 15.9841 14.3685 15.8381C14.1312 15.6922 13.9304 15.4939 13.7815 15.2585L12.4125 13.0475C12.2912 12.8622 12.1026 12.7312 11.8866 12.6822C11.6706 12.6331 11.444 12.6698 11.2545 12.7845C11.1426 12.8439 11.0509 12.9355 10.9915 13.0475L2.67554 26.3125L0.56954 29.6285C0.451834 29.8261 0.41352 30.0611 0.462337 30.2859C0.511154 30.5106 0.643464 30.7085 0.83254 30.8395C0.89775 30.893 0.974646 30.9304 1.057 30.9486C1.13935 30.9669 1.22484 30.9655 1.30654 30.9445H8.04454C8.5595 30.9451 9.06619 30.815 9.51722 30.5665C9.96826 30.318 10.3489 29.9591 10.6235 29.5235L15.7295 21.4695C17.7933 21.0571 19.8894 20.8282 21.9935 20.7855C23.7269 20.6445 25.4639 21.01 26.9935 21.8375Z" fill="white"/>
<path d="M2.67554 26.3125L0.56954 29.6285C0.451834 29.8261 0.41352 30.061 0.462337 30.2858C0.511154 30.5106 0.643464 30.7085 0.83254 30.8395C0.975283 30.9242 1.14129 30.9614 1.30654 30.9455H8.04454C8.5595 30.946 9.06619 30.816 9.51722 30.5674C9.96826 30.3189 10.3489 29.9601 10.6235 29.5245L15.7295 21.4695C11.1411 22.3538 6.73041 23.9901 2.67554 26.3125Z" fill="#CCCCCC"/>
</g>
<defs>
<clipPath id="clip0_2013_338">
<rect width="160.463" height="30.793" fill="white" transform="translate(0.44165 0.203491)"/>
</clipPath>
</defs>
</svg>
