<svg width="63" height="21" viewBox="0 0 63 21" fill="none" xmlns="http://www.w3.org/2000/svg">
<path fill-rule="evenodd" clip-rule="evenodd" d="M18.9395 0.499853L13.5229 13.6209L11.4135 2.42428C11.2572 1.37459 10.3718 0.47486 9.14787 0.47486H0.449951V1.07468C2.24683 1.37459 3.91349 1.97441 5.39787 2.72419C5.99683 3.0241 6.41349 3.64891 6.59578 4.37369L10.6583 19.894H16.075L24.2 0.499853H18.9395Z" fill="white"/>
<path fill-rule="evenodd" clip-rule="evenodd" d="M26.2833 0.499853L22.0906 19.894H27.1947L31.4135 0.499853H26.2833Z" fill="white"/>
<path fill-rule="evenodd" clip-rule="evenodd" d="M38.002 5.87324C38.1583 4.82356 39.0437 4.22374 40.1114 4.22374C41.752 4.07378 43.575 4.37369 45.0593 5.12347L45.9708 0.949718C44.4604 0.349898 42.8197 0.0499878 41.3093 0.0499878C36.3614 0.0499878 32.7416 2.72419 32.7416 6.47306C32.7416 9.29721 35.2937 10.7968 37.0906 11.6965C39.0437 12.5962 39.7989 13.196 39.6427 14.0708C39.6427 15.4204 38.1322 16.0202 36.6479 16.0202C34.851 16.0202 33.0281 15.5703 31.3875 14.8206L30.476 18.9943C32.2989 19.7441 34.252 20.044 36.0489 20.044C41.5958 20.1939 45.0593 17.5197 45.0593 13.471C45.0854 8.39748 38.002 8.09757 38.002 5.87324Z" fill="white"/>
<path fill-rule="evenodd" clip-rule="evenodd" d="M58.8875 0.499853H54.5385C53.627 0.499853 52.7416 1.09967 52.4291 1.9994L44.9291 19.894H50.1895L51.2312 17.0699H57.6895L58.2885 19.894H62.95L58.8875 0.499853ZM52.5854 13.0211L55.2937 5.72329L56.8041 13.0211H52.5854Z" fill="white"/>
</svg>
