<svg width="306" height="56" viewBox="0 0 306 56" fill="none" xmlns="http://www.w3.org/2000/svg">
<rect y="0.261139" width="305.558" height="54.7595" rx="27.3797" fill="black"/>
<mask id="mask0_2013_239" style="mask-type:alpha" maskUnits="userSpaceOnUse" x="60" y="16" width="23" height="23">
<rect x="60.3518" y="16.689" width="21.9038" height="21.9038" fill="#D9D9D9"/>
</mask>
<g mask="url(#mask0_2013_239)">
<path d="M69.935 30.3787H72.6729L72.1482 27.4354C72.4524 27.2833 72.692 27.0627 72.8669 26.7737C73.0418 26.4847 73.1293 26.1653 73.1293 25.8155C73.1293 25.3135 72.9505 24.8838 72.5931 24.5263C72.2356 24.1689 71.8059 23.9901 71.304 23.9901C70.802 23.9901 70.3723 24.1689 70.0148 24.5263C69.6574 24.8838 69.4786 25.3135 69.4786 25.8155C69.4786 26.1653 69.5661 26.4847 69.741 26.7737C69.916 27.0627 70.1555 27.2833 70.4597 27.4354L69.935 30.3787ZM71.304 36.7673C69.1896 36.235 67.4442 35.0219 66.0676 33.1281C64.691 31.2344 64.0027 29.1314 64.0027 26.8194V21.2522L71.304 18.5142L78.6052 21.2522V26.8194C78.6052 29.1314 77.9169 31.2344 76.5403 33.1281C75.1637 35.0219 73.4183 36.235 71.304 36.7673ZM71.304 34.8508C72.8859 34.3488 74.194 33.3449 75.2284 31.839C76.2627 30.3331 76.7799 28.6599 76.7799 26.8194V22.5071L71.304 20.4536L65.828 22.5071V26.8194C65.828 28.6599 66.3452 30.3331 67.3795 31.839C68.4139 33.3449 69.722 34.3488 71.304 34.8508Z" fill="white"/>
</g>
<path d="M94.2587 34.1409V21.8747H98.4817C99.1417 21.8747 99.7375 22.0383 100.269 22.3654C100.806 22.6925 101.233 23.1335 101.548 23.6884C101.869 24.2433 102.03 24.8566 102.03 25.5283C102.03 26.2117 101.867 26.8308 101.539 27.3857C101.218 27.9348 100.789 28.3729 100.252 28.7C99.7142 29.0271 99.1242 29.1906 98.4817 29.1906H96.0811V34.1409H94.2587ZM96.0811 27.3682H98.2977C98.6482 27.3682 98.9665 27.2806 99.2527 27.1054C99.5448 26.9301 99.7755 26.6965 99.9449 26.4045C100.12 26.1124 100.208 25.7824 100.208 25.4144C100.208 25.0464 100.12 24.7164 99.9449 24.4243C99.7755 24.1265 99.5448 23.8928 99.2527 23.7234C98.9665 23.5482 98.6482 23.4606 98.2977 23.4606H96.0811V27.3682ZM109.854 25.3794H111.676V34.1409H109.845L109.775 32.8704C109.518 33.3202 109.17 33.6823 108.732 33.9569C108.294 34.2314 107.777 34.3687 107.181 34.3687C106.539 34.3687 105.934 34.2489 105.368 34.0094C104.801 33.7641 104.302 33.4253 103.87 32.9931C103.443 32.5609 103.11 32.0644 102.871 31.5037C102.631 30.9371 102.512 30.3296 102.512 29.6813C102.512 29.0563 102.628 28.4692 102.862 27.9202C103.096 27.3653 103.42 26.8805 103.835 26.4658C104.249 26.0511 104.728 25.7269 105.271 25.4933C105.821 25.2538 106.408 25.134 107.033 25.134C107.669 25.134 108.23 25.2801 108.715 25.5721C109.205 25.8583 109.611 26.2263 109.933 26.6761L109.854 25.3794ZM107.138 32.6076C107.652 32.6076 108.101 32.482 108.487 32.2309C108.872 31.9739 109.17 31.6292 109.381 31.197C109.597 30.7648 109.705 30.2858 109.705 29.7601C109.705 29.2286 109.597 28.7467 109.381 28.3145C109.165 27.8822 108.864 27.5405 108.478 27.2894C108.099 27.0324 107.652 26.9039 107.138 26.9039C106.63 26.9039 106.165 27.0324 105.745 27.2894C105.324 27.5464 104.991 27.891 104.746 28.3232C104.5 28.7555 104.378 29.2344 104.378 29.7601C104.378 30.2916 104.503 30.7735 104.755 31.2058C105.012 31.6322 105.347 31.9739 105.762 32.2309C106.183 32.482 106.641 32.6076 107.138 32.6076ZM119.05 25.3794H120.995L116.193 38.5216H114.257L115.843 34.1409L112.698 25.3794H114.686L116.754 31.6438L119.05 25.3794ZM134.846 28.6474V34.1409H133.023V29.0942C133.023 28.7029 132.927 28.3466 132.734 28.0253C132.547 27.7041 132.293 27.45 131.972 27.2631C131.657 27.0703 131.3 26.9739 130.903 26.9739C130.518 26.9739 130.164 27.0703 129.843 27.2631C129.522 27.45 129.265 27.7041 129.072 28.0253C128.879 28.3466 128.783 28.7029 128.783 29.0942V34.1409H126.96V25.3794H128.783V26.3081C129.086 25.9459 129.46 25.6597 129.904 25.4494C130.348 25.2392 130.827 25.134 131.341 25.134C131.989 25.134 132.579 25.2917 133.111 25.6072C133.642 25.9226 134.063 26.346 134.373 26.8776C134.688 27.4091 134.846 27.999 134.846 28.6474ZM140.279 34.3687C139.472 34.3687 138.736 34.1613 138.071 33.7466C137.411 33.3319 136.882 32.777 136.485 32.0819C136.093 31.381 135.898 30.6071 135.898 29.7601C135.898 29.1176 136.012 28.5189 136.239 27.964C136.467 27.4033 136.78 26.9126 137.177 26.4921C137.58 26.0657 138.047 25.7327 138.579 25.4933C139.11 25.2538 139.677 25.134 140.279 25.134C141.085 25.134 141.818 25.3414 142.478 25.7561C143.144 26.1708 143.672 26.7286 144.063 27.4295C144.461 28.1305 144.659 28.9073 144.659 29.7601C144.659 30.3968 144.545 30.9926 144.318 31.5475C144.09 32.1024 143.774 32.593 143.371 33.0194C142.974 33.4399 142.51 33.77 141.978 34.0094C141.453 34.2489 140.886 34.3687 140.279 34.3687ZM140.279 32.5463C140.763 32.5463 141.198 32.4178 141.584 32.1608C141.969 31.9038 142.273 31.565 142.495 31.1444C142.723 30.718 142.837 30.2566 142.837 29.7601C142.837 29.2519 142.72 28.7847 142.486 28.3583C142.259 27.9319 141.952 27.5931 141.566 27.3419C141.181 27.0849 140.752 26.9564 140.279 26.9564C139.8 26.9564 139.364 27.0849 138.973 27.3419C138.588 27.5989 138.281 27.9406 138.053 28.367C137.831 28.7934 137.72 29.2578 137.72 29.7601C137.72 30.28 137.837 30.7502 138.071 31.1707C138.304 31.5913 138.614 31.9271 138.999 32.1783C139.391 32.4236 139.817 32.5463 140.279 32.5463ZM149.887 34.1409H148.074L145.138 25.3794H146.926L148.993 31.5299L151.044 25.3794H152.884L154.934 31.5299L156.993 25.3794H158.78L155.854 34.1409H154.023L151.955 27.9465L149.887 34.1409Z" fill="white"/>
<rect x="171.159" y="18.8794" width="1.09519" height="17.523" rx="0.547594" fill="white"/>
<path d="M188.454 23.5044C187.987 23.4985 187.549 23.5745 187.14 23.7322C186.737 23.8841 186.407 24.0943 186.15 24.363C185.893 24.6317 185.765 24.9442 185.765 25.3005C185.765 25.7386 185.884 26.0715 186.124 26.2993C186.363 26.5271 186.685 26.6965 187.088 26.8075C187.497 26.9126 187.952 27.009 188.454 27.0966C189.261 27.2251 190.005 27.4383 190.689 27.7362C191.378 28.0341 191.93 28.4313 192.345 28.9278C192.765 29.4184 192.975 30.023 192.975 30.7414C192.975 31.4014 192.8 31.9885 192.45 32.5025C192.099 33.0106 191.629 33.4224 191.039 33.7378C190.455 34.0474 189.81 34.2431 189.103 34.3249V36.1034H187.815V34.3249C187.225 34.2665 186.664 34.1263 186.133 33.9043C185.607 33.6823 185.148 33.3874 184.757 33.0194C184.366 32.6514 184.082 32.225 183.907 31.7402L185.616 31.1006C185.715 31.381 185.905 31.6322 186.185 31.8541C186.471 32.0702 186.81 32.2396 187.202 32.3623C187.599 32.4849 188.016 32.5463 188.454 32.5463C188.922 32.5463 189.36 32.4703 189.769 32.3185C190.183 32.1666 190.516 31.9563 190.767 31.6876C191.024 31.419 191.153 31.1035 191.153 30.7414C191.153 30.3676 191.019 30.0609 190.75 29.8214C190.487 29.582 190.148 29.3921 189.734 29.2519C189.325 29.1118 188.898 29.0066 188.454 28.9365C187.596 28.7963 186.825 28.5919 186.141 28.3232C185.464 28.0545 184.926 27.6778 184.529 27.193C184.138 26.7082 183.942 26.0774 183.942 25.3005C183.942 24.6405 184.117 24.0534 184.468 23.5394C184.818 23.0254 185.286 22.6136 185.87 22.3041C186.46 21.9886 187.108 21.793 187.815 21.717V19.9122H189.103V21.717C189.675 21.7754 190.224 21.9156 190.75 22.1376C191.281 22.3596 191.746 22.6545 192.143 23.0225C192.54 23.3846 192.829 23.8169 193.01 24.3192L191.284 24.9413C191.185 24.6551 190.995 24.4068 190.715 24.1965C190.435 23.9804 190.096 23.811 189.699 23.6884C189.307 23.5657 188.893 23.5044 188.454 23.5044ZM195.877 34.1409V23.6971H194.414L194.914 21.8747H197.7V34.1409H195.877ZM204.387 34.3687C203.663 34.3687 203.008 34.2051 202.424 33.878C201.846 33.5451 201.347 33.0866 200.926 32.5025C200.506 31.9184 200.184 31.2437 199.962 30.4786C199.74 29.7075 199.629 28.884 199.629 28.0078C199.629 27.1317 199.74 26.3081 199.962 25.5371C200.184 24.766 200.506 24.0914 200.926 23.5132C201.347 22.929 201.846 22.4735 202.424 22.1464C203.008 21.8134 203.663 21.6469 204.387 21.6469C205.099 21.6469 205.748 21.8134 206.332 22.1464C206.916 22.4735 207.412 22.929 207.821 23.5132C208.236 24.0914 208.554 24.766 208.776 25.5371C208.998 26.3081 209.109 27.1317 209.109 28.0078C209.109 28.884 208.998 29.7075 208.776 30.4786C208.554 31.2437 208.236 31.9184 207.821 32.5025C207.412 33.0866 206.916 33.5451 206.332 33.878C205.748 34.2051 205.099 34.3687 204.387 34.3687ZM204.387 32.5463C205.059 32.5463 205.616 32.336 206.06 31.9154C206.51 31.4891 206.846 30.9312 207.068 30.242C207.29 29.5528 207.401 28.808 207.401 28.0078C207.401 27.1667 207.284 26.4045 207.05 25.7211C206.823 25.0318 206.484 24.4857 206.034 24.0826C205.59 23.6738 205.041 23.4693 204.387 23.4693C203.867 23.4693 203.414 23.592 203.029 23.8373C202.649 24.0826 202.334 24.4185 202.083 24.8449C201.837 25.2713 201.65 25.7561 201.522 26.2993C201.399 26.8425 201.338 27.412 201.338 28.0078C201.338 28.808 201.452 29.5528 201.68 30.242C201.907 30.9312 202.246 31.4891 202.696 31.9154C203.151 32.336 203.715 32.5463 204.387 32.5463ZM214.586 34.3687C213.862 34.3687 213.207 34.2051 212.623 33.878C212.045 33.5451 211.546 33.0866 211.125 32.5025C210.704 31.9184 210.383 31.2437 210.161 30.4786C209.939 29.7075 209.828 28.884 209.828 28.0078C209.828 27.1317 209.939 26.3081 210.161 25.5371C210.383 24.766 210.704 24.0914 211.125 23.5132C211.546 22.929 212.045 22.4735 212.623 22.1464C213.207 21.8134 213.862 21.6469 214.586 21.6469C215.298 21.6469 215.947 21.8134 216.531 22.1464C217.115 22.4735 217.611 22.929 218.02 23.5132C218.435 24.0914 218.753 24.766 218.975 25.5371C219.197 26.3081 219.308 27.1317 219.308 28.0078C219.308 28.884 219.197 29.7075 218.975 30.4786C218.753 31.2437 218.435 31.9184 218.02 32.5025C217.611 33.0866 217.115 33.5451 216.531 33.878C215.947 34.2051 215.298 34.3687 214.586 34.3687ZM214.586 32.5463C215.258 32.5463 215.815 32.336 216.259 31.9154C216.709 31.4891 217.045 30.9312 217.267 30.242C217.489 29.5528 217.6 28.808 217.6 28.0078C217.6 27.1667 217.483 26.4045 217.249 25.7211C217.022 25.0318 216.683 24.4857 216.233 24.0826C215.789 23.6738 215.24 23.4693 214.586 23.4693C214.066 23.4693 213.613 23.592 213.228 23.8373C212.848 24.0826 212.533 24.4185 212.282 24.8449C212.036 25.2713 211.849 25.7561 211.721 26.2993C211.598 26.8425 211.537 27.412 211.537 28.0078C211.537 28.808 211.651 29.5528 211.878 30.242C212.106 30.9312 212.445 31.4891 212.895 31.9154C213.35 32.336 213.914 32.5463 214.586 32.5463ZM221.483 34.3687C221.214 34.3687 220.986 34.2752 220.799 34.0883C220.618 33.9014 220.528 33.6736 220.528 33.4049C220.528 33.1421 220.618 32.9172 220.799 32.7303C220.986 32.5434 221.214 32.4499 221.483 32.4499C221.751 32.4499 221.979 32.5434 222.166 32.7303C222.353 32.9172 222.446 33.1421 222.446 33.4049C222.446 33.6736 222.353 33.9014 222.166 34.0883C221.979 34.2752 221.751 34.3687 221.483 34.3687ZM228.789 34.3687C228.065 34.3687 227.411 34.2051 226.826 33.878C226.248 33.5451 225.749 33.0866 225.328 32.5025C224.908 31.9184 224.586 31.2437 224.364 30.4786C224.143 29.7075 224.032 28.884 224.032 28.0078C224.032 27.1317 224.143 26.3081 224.364 25.5371C224.586 24.766 224.908 24.0914 225.328 23.5132C225.749 22.929 226.248 22.4735 226.826 22.1464C227.411 21.8134 228.065 21.6469 228.789 21.6469C229.502 21.6469 230.15 21.8134 230.734 22.1464C231.318 22.4735 231.815 22.929 232.224 23.5132C232.638 24.0914 232.957 24.766 233.179 25.5371C233.401 26.3081 233.511 27.1317 233.511 28.0078C233.511 28.884 233.401 29.7075 233.179 30.4786C232.957 31.2437 232.638 31.9184 232.224 32.5025C231.815 33.0866 231.318 33.5451 230.734 33.878C230.15 34.2051 229.502 34.3687 228.789 34.3687ZM228.789 32.5463C229.461 32.5463 230.019 32.336 230.462 31.9154C230.912 31.4891 231.248 30.9312 231.47 30.242C231.692 29.5528 231.803 28.808 231.803 28.0078C231.803 27.1667 231.686 26.4045 231.453 25.7211C231.225 25.0318 230.886 24.4857 230.436 24.0826C229.992 23.6738 229.443 23.4693 228.789 23.4693C228.269 23.4693 227.817 23.592 227.431 23.8373C227.051 24.0826 226.736 24.4185 226.485 24.8449C226.239 25.2713 226.053 25.7561 225.924 26.2993C225.801 26.8425 225.74 27.412 225.74 28.0078C225.74 28.808 225.854 29.5528 226.082 30.242C226.31 30.9312 226.648 31.4891 227.098 31.9154C227.554 32.336 228.117 32.5463 228.789 32.5463ZM238.988 34.3687C238.264 34.3687 237.61 34.2051 237.025 33.878C236.447 33.5451 235.948 33.0866 235.527 32.5025C235.107 31.9184 234.785 31.2437 234.563 30.4786C234.341 29.7075 234.23 28.884 234.23 28.0078C234.23 27.1317 234.341 26.3081 234.563 25.5371C234.785 24.766 235.107 24.0914 235.527 23.5132C235.948 22.929 236.447 22.4735 237.025 22.1464C237.61 21.8134 238.264 21.6469 238.988 21.6469C239.701 21.6469 240.349 21.8134 240.933 22.1464C241.517 22.4735 242.014 22.929 242.423 23.5132C242.837 24.0914 243.156 24.766 243.378 25.5371C243.599 26.3081 243.71 27.1317 243.71 28.0078C243.71 28.884 243.599 29.7075 243.378 30.4786C243.156 31.2437 242.837 31.9184 242.423 32.5025C242.014 33.0866 241.517 33.5451 240.933 33.878C240.349 34.2051 239.701 34.3687 238.988 34.3687ZM238.988 32.5463C239.66 32.5463 240.218 32.336 240.661 31.9154C241.111 31.4891 241.447 30.9312 241.669 30.242C241.891 29.5528 242.002 28.808 242.002 28.0078C242.002 27.1667 241.885 26.4045 241.651 25.7211C241.424 25.0318 241.085 24.4857 240.635 24.0826C240.191 23.6738 239.642 23.4693 238.988 23.4693C238.468 23.4693 238.015 23.592 237.63 23.8373C237.25 24.0826 236.935 24.4185 236.684 24.8449C236.438 25.2713 236.251 25.7561 236.123 26.2993C236 26.8425 235.939 27.412 235.939 28.0078C235.939 28.808 236.053 29.5528 236.281 30.242C236.508 30.9312 236.847 31.4891 237.297 31.9154C237.753 32.336 238.316 32.5463 238.988 32.5463Z" fill="white"/>
</svg>
